<mxfile host="app.diagrams.net" modified="2023-02-21T09:48:36.941Z" agent="5.0 (Windows NT 10.0; Win64; x64) AppleWebKit/537.36 (KHTML, like Gecko) Chrome/110.0.0.0 Safari/537.36 Edg/110.0.1587.50" etag="nDgocLkl_vmklgnJ62ua" version="20.8.21" type="github">
  <diagram name="第 1 页" id="G8GHn-h7lhNV-vMU9Tal">
    <mxGraphModel dx="1221" dy="655" grid="1" gridSize="10" guides="1" tooltips="1" connect="1" arrows="1" fold="1" page="1" pageScale="1" pageWidth="827" pageHeight="1169" math="0" shadow="0">
      <root>
        <mxCell id="0" />
        <mxCell id="1" parent="0" />
        <mxCell id="HnhsPbhekzyfCZBb2tJA-1" value="" style="shape=image;verticalLabelPosition=bottom;labelBackgroundColor=default;verticalAlign=top;aspect=fixed;imageAspect=0;image=data:image/png,iVBORw0KGgoAAAANSUhEUgAAAPIAAACJCAYAAAAWjWWmAAAAAXNSR0IArs4c6QAAAARnQU1BAACxjwv8YQUAAAAJcEhZcwAAEnQAABJ0Ad5mH3gAAFw2SURBVHhe7X0HYBzVtfY3uypWsWS59957wd2Y3kJvSQiEhASSkEbqy/tf3uMlL70SAiRAgJCQkNBDKDbF4I5778a9y5ZtWZJVd+c/35m969Fod7W72pVk4LNHM3PrOeeec++5d2bvWLW1tTbSDMuyYNvJVdOUvKmAt/6WpidVaG1ybQ1IhKbWohemXl/ovh4Y2RjiSWPQFAYTEWw64K2/JRorVaCMjJxSIddk44iWaFeWFau8RNq2teiFqbdZRuQPC6gkzdGg6aynuXhobnwQ+XLzFHFE/gjJobkUJZ31fBCNmEgXXzSmloKbJzXkphITKX9LMvhhQjJyPpvbJlnam8JzrLytpeNTQ24qMZHytxYGP2jwKlUycm5K27R0J5As7U3hOZG8LdHREB8a17qlFTBVoFIlw0uq+E9WqeOtv6l0porPaGis/HjkE6mMRDsabxn1FrsYmWiBTYOLGHOZRP3NT3d0tCZaziZ8JLemIaFV62SEbck/W/7xSgoQHyDkBNBwtSw5eGYcYbmcBEYHg3KWIwG0BqU4GxTzI+NJHkZ2rUWG6X38JEzC55ezXLOWylNA6RFYJ+WQs83rqgqgplqN3crIBnILYRd2BIq6w27XFSiQ6zb5TlksIxhwDD8ORBLyR8r74ZDBh62dU2rIYeFxVPXLERCjO3EQ1p71sHashLV3PXB0N1B2FKgqlcqrdbS1OerSkDVfBuyMLFg5RbDbdoXduRfsvmOAARNh9x4B0LilHh2pNV9DJNKIkdI2Z/5kIMXzr167kc46WxofBJ6pF4Sb5lTpSkRDjlZ4o5XSEOk6y8hr7VwNa90cWFsXAwc2wqooEcOuDaVzDlMSb3ldr5kYYBL4s4C2XWD3GgV72DTYoy9AsO84WFk5TmdxFjVmMqDcfXJYoWmJLZ1fIGAjyE5QePeJ3H0+C36/eD9OAo0LBhOXS6oUqylQPSC/5Fv4YghpCkhbkyf+a8CzhAUDwnMr04XmkmfqRmQZSVFbKYa7FNbCf8La8Daskr2O8VL/nPZQuCtkEO9DUeFrdxhvKAuLgeJ+2536wx53FYLTb4TdTwyahh6oc9J+gOAXw6Xx1okCHz95CvsOHcXeA0dw4PBRHDtRiorKKo1rk5WFtvl56NqxCL27d0afHl3Ro0tH5Oa20XJoAC1tnPGChknlD4q3daK0DHsOHsG+g8XC8zEUHz+JitOVqK0zPOeiW+f26Nm1o/DdRXmmHIigTMGS6cjOVsQ05Lh6EzMKH34fvrlPwrfwGaBkl+STkVIsUYqob5QCc29KdscR0cIVjOQhxmt3HQJ76s0IXnA70LGPaGziC2NNQbp6W79MSzjNKC2rwMbtuzB/6TosX78Ze/YX48SpMlTX1Kiic/Rh/RytfdIGGWIEeTk56NyhHQb174Vp40dg+oRR6N+7m8a1JoP2ys50WmXlFdiwfTcWLl+PlRu24v09B3FSeK6qNjxLYslHvWL6TOErp002Ordvh8HC89QQzwOE58zMTBmlxaBTwHNzjayREE/dTRuRfdJ7VpfBWjUL1luPw9q+AKirckbgEEzhxih5b4zYbahKJxvHua2HiHl4Q5vNyoc9/ALYl34RwdEX6ogtLa5J0o1UNy7Lo0IfO16KecvWYta8ZaLMW3D46AkdhRhviTvJf24Y2fAv+zG6nvybl9MG/Xp3x3mTRuOKmZMxdvhAZGdl6ijeWqA8S8dVcuIUFixfh9nzl2P5mk04dIw8O14W3WiVtfwj7249YBibwKaFS2Bumyz069ldjHkELj9vMiaOGaKjd2viOR1I3pDpSpeVwPfWI/DN/gNQekAN2BZh1lczCrthmEG48lCiWOkixjGCdtt5AIKX3I3gxXfqyvfZ5mrTpaTiLluzGX9+YTYWLF0ro2+5MO0Yt7LJEUkOzpEjScMYegafFAg4EgUkfVaGD727dcH1l52LT159Ifr27CblxOd6qgGlsLNyg3wFhI6VG7bjLy++iTmLVqBE3GkaK+MI8kselAaSofMrw7uzQEpvRNNLMNNxrswwutw3XnEePnHlBTpCk9/WNodOFRo15IgNSUUp2Q/fq7+FNfcvsKpOOEYsUdEMkfBWFCutQWNlEpqGI1F+J9gX3oXgVfcABZ1bhTHHYwg04hKZ8z7z+lz89cU3sGvfIQ3nSMQRhwbuF5kXts1TF5Kuc4eiArTJztbyq6qrcbz0lIzkp3C05KRclzl5MvyOgkv1ATF+jkzTxg3H3Z++DjPE/eRiEQ0lFtJlyHT1OU14ftZ8PPn8LOzYe0iNjNMEnuvEA+FIXShz3k4dCtFJ+O7QrgC5Odmahq72ybJyFB87ieITJ3U+XVMjecizxAvh2lmR5wkjB+GuW67GRdMnSKeWoVOMlkK65Jn4iOzLgHV0F3zP/wjWoqdFQ6rViL1gocYAzbX3HA3eeHc+gwb5JZLysbLbInj+nQje+J+txphjIUOUdfvug7j/yRfw6ruLUX66So2WDAVkZOGcd/ig3jh34miMHzlY3MauaFfQVl1IGgMFUSfpKkWxy8pO48ChI1i1aQcWrVyPNZt3qIGzPGf0C0pyG316dMEXRLE/edVFyMttE1Ox06F4pGXvoWI89NTLeH72PJkXn9YRlHB4zsbgfr0w45wRmDRmmE4PaNAMz8wUTzCUjjyfKqvAgSPHsG7rTixYtg6rN24Tnsu1PKejchSDC2FfvPUa3HbtxTrloCxaCumQaWKGLAphlRbD99z/yUj8GOxAja51ESzEbWwNDE1g0njhDnfn94Z7w4gG4WyfNmLMl98D+9rvwG4jbnYwvcacbMP4xIjf330AP/vj05g1d4mORDQ6zucyZeSYNGoIbrh8JmZOHoMenTs4SixMsi6tTquUP1K//JcoRzJ1MhoflRF++fqteOH1eZgnbnpZZSUyOR2SJAEZ7TrKiP7l267D5z9+JXJystQwmgPsfN7fexC/evSfePWdxajhyCs8szNh3HiZx39cXOFzZV5P48vOztR8YZ7JL89unuU/R3Cu5K/csE1H+XlL1qC0vELlSNCF71hYgDtvuQp3Cs8F4t14O7BUGVhj5SRTT2N5/Pfee+8PQtexwR6zugK+Nx+B9abMietOqxGrTJ0UCl7z8IYT7nsT7ybN5DXp3Ondad3hhDuPztHraoCD24GcQtj9xmoHVL+m9IJCN+C1+96Ao8Wu/Ufwy0f+iVnzaMRM6zxq6tm1Ez738Svwrc/fjJmi0O0K8rUMZ45MhQ4d+k84C92zI+DBeXJ+Xi4G9++pK9edO3bAoeJj6nZT8TlaVVRWY/P7u9VVHTGorzO6pxmcQuw/XIxfPPw0Xp2zCHXCi+G5u3RUd9wkPN95M86fPBZFhW1DI6qHZ2G4Ac9aDpCfm4OBfXoIz8PRq3tnHDl6AoeOllCwWvfpqips2r4bOeLNjBzSD1mZmVrG2QyjW3EZspNYhLX0RXGpfwzrdAmsCO3upHLOTvFnYMLN+czFGbhvvdG8N3CX4ynCuZc/VlU5rIM7YHfpB/QaBqsVNRjnfkdlPvvrPz2Df729UF1jKhvXcSaOHor/+eqn8clrLkSnIumIJH0yymby5OfmYvTQ/rpiTZdzt8y/OfbSSCrEjd8kxtxR5p8jBvULK0WiiCcf6+Pc/QGZQjwrXkKt8MxspHPcsIH4f3ffiluvuwRdO7YXnkOLWyHES5fJwk5slBjquBGDZO5Mng+qK+2TDr2yqhqbduxBYdt87cCMS58s760F8Y3IYrXWoa3wvfATYN96WI63EgZF4BYDr00zeK/NPeXGawP3tcY7lw1gwnl2l+uGKR8Vx2GVnwKGToed314iGrqPzd2ArK9GXN9/vDwHTzz3Oqpq6nTxhlScO2kU7v3a7TIfNgtRhkMXSC89DDOnUTBM7jWMJZ3JR4OgsvaQUZ5uK1fCt+zkc34nvKy8UkfJkUP6o2e3zjoCphrkryYgPL/yDv70zGs4Ld6AGpCQOW3cCPzg65/B+VPHqVeQivrJG+XctVN76cAGaX1bd+5V95v1lldUYs/+wzoP79+rm47qZzsaN2QqTlUFrDcehrXkGbkN1HvEZM5eMJyHEZFJx3t3HnPtDiMi3ocyu/N403nBOb3NRa+BE3nnBIbAxnb3/M0BvsSweOUm/ObxZ3D46HHHpZUOZvLY4ToScxRxHreEMtSD0M835U6f1GmO3nPeK/M/u6JMvRDtrDKceaUb5LOoXQGG9O+lLuf2PQe0Drq2fGuMo/OkMUPRVkazRGXSWGfI+CVrhOc/PYsDR0qEZ58a7LgRA3GvGPHkscPEmOqPwqkAy+O0ZMTgvuqNbNmxGwEJ85Nn8Q748gl55uicDp6bE7ENmcTIYW1fDN/LP4fFHzuw4w9Fe0FRMM4dH+nepCMoPy/PJg1RL2/oJlq8gYaZcmuqhe5S2IMnAe27S3j8Pb63MZraOBxli4+dwO/+/DyWrtmoizwcdUcM6iMj8WdUqajgUeuRTiC4dzNq/vozBBa8DKtNLnx9h8E+tg+1z9yHutl/g10ro92A0dJhNJz7UFnbizFzJOLjnt37D+kjLg78+w8fRRdxa8cMGxBKnRpwhfqYdBT3P/48Fq5er8+4yePA3t3wX1++TVfjOSImaEdxwxjzEOF5p0wrdkgHxkVGhrMj7dShCGOGDnA8hLMYjVAvClUpPf2yl2AV74QdYV5M+UcyKne4FyYdGy+azjI4nC50ECbMHU+Y+HBaE8mO5+B6+Jb/G+CvrSJUGM1wvL10U3ptXnNl+J33VmP+srVSmOMNFBXk4rM3XY4p44arURP16mEZHHW5+kplO12O4NYVCGxciGDJQYmXNLU1CO5Yg8D6BQge3iUzIUnLkd7kcYFlc1T+8q3XoH/P7rrQRNf3VPlpvDR7nq6i00toaqdFsAQa6eKVGzF3ucMz7wvyc/GZm67AeZPHkqAz/LJOQy/PusruvQ/RxY5K+TxzWOTXXJP/EPiaZv9eXXG38Dyob09drTYu9kuz52P77n3a4cQLb7vGi1TINBpiUy8VWwe3wtrwjgi84UgWS60NyUwTLR35csd705k4lhWPCEzaemAdNadhrXtDOqMdjgJ4kKiBNgbTYO5yaSxHj5fi9blL9eUFrixz0eviGefgygumqmI1oIPl8A2s/dsQWLfQOXZukAhJ588Uo90jxvseAltXqeeBrCzgeLGkW+Ck3bICdjlf1jnDs6lj2viRuOmKmfrKJo2LNPMd57cWrwy59k2XCacRfPXytXcWo0RGZRoLWbpw2njccNm5yMrM0LpDiYG6WpkiyLSBbnb5SQQPyeDBe+HXPnVM7mVuXynTB9J3/BCCB3YgeJDH+3oE9vMs95IvWFYifEuZUiFrID8TxeP51DUXIrdNG6nCWTHfsnMf3liwAjW1tSqDeOCWTSrklArEcK1pAUH4lr4A3+Ln5bZOg9ysmutI7JM9hieShuC1CSe8924YETLOHG64763KStjdhwB8HJViuBWA15EalykWrtyAp156UxdfGNKra0fcc8fNOodr8FIGyxTjrJv7PGr//gsE5r2IwLLZCGx+T0blU8K8dKyi2IHlbyO4fiHs0mOaJVgiCr7qXQSXviFxsxHcsw2+7v1hFXWWPA5dpJHPpIvE5Vy1cTsOHjmmnUp1TS0yRfmnnzMKBW0TnytHAl85feL5WTL6Vcmdje6dOuCbwvMocWcNzzR4Gmrdvx9F8P118A0cjcDi11D7lx/DysmH1WuwTBv+irrnfg9fp57wte+MuufvR+1Lf0Rg6esIvPda6OD1qwgsegXBzcuUZ1/nXso3OWHH0aGoEGs378CeA0dk4OZrsQFxaOr0MV17PiVIsWHG2zk0FdFHZBJQJQqzc7UoVJUucCUCd/JoWd3hFB/v3WI09+ZsDgOGe/OwHRim16GzyrLyhMz1lwkvFRIQvxsVDxprfH3UU1mFxcs36A8iODL5JWzGxFEYP2KQzhkbQtzQPRtR99rj4javQ/DEYR2FrLLjfK1JGbVPl8E+cUiM+KgzmpGOqgoJOyzpxaCL9yGwRBR83gvahkapmI51DujTHZfPnKivMWpeid+8Yw82bJORMCzF5MC6qmpq8N7qDSguKdW5OL0SjorjRg2WfugMz5Re8OBO8S4WwebCKqvmSzwBGSXFI+GtRZ75fgA7sEAd7OL9sPdulGMz7D2hY++m0HmzdGJvIvDOs9LplTkjM4uUUbhX1864ePoE5Oa00XvWtU1c65WbtlOkilQaXzIdQ6z6o8VFH5HJ/JH34Xv7cVilMhejlyLBbrJ4b8LcZ8J97Ua0tIS598bz7D5COlcP4dvQhUkbBuef/KXUmEuAKI+iEkW8DU63ec/BYvzp2df0d7XM1r4wH3d98hp9xtvQkCWB0BfYtAR1i18BMrOQOe0aZJx7A/wjZ8A/Sg5zHn2unHk4YRm8HjMTviETdX3Dlnm01a4T/GPPA7JzHeGFwLeessSIF69cr29FcfGtqqpGf+M7dewwfYkiWZDnfYeK8efnZ2P3gcMqq0IZ5T/78SswcdQQD89iUHmFyBh3nvAwVUbhtrC69oF/4qXwDxitdFs9B+q9r88wcQ5rEVj1jrjQu0WDRTGpqzzYQfNeznSdfYXC98RLpLy8MN8ZMgpnZ2Vj6eqN0sGcVE+kqrpW2qMAM84ZqaN2LONLpZE3FW5ahOsoEEWyivfAKtmjeqVBcpis5uxmmWFeEUQTyRkSol8T7vtwWRIYT7n1IBFWqYxoJ0ILRClAvL0tk+3efwT7Dx11VkxFh/lrpBGDeispDZSDi00yB2bnY9kyImVkiUJejIzrv4CMa78o57uRcYMcPJtrOTLl2n+9xEuazMtvF2PoK3WF5rusQ5X9TF2knu9u82URjpaMqZPRbtP2PfoiBcOaAm4IsGv/YalT5sZSW98eXTF+2CAhw1MuySONtRyFQ+522yL4egyQTred0myJUfq6D4CV29bJEMaZskgu7/SQP+5UYUg9XPiiJ2TooIv//q79Ds+UUQwkM8KmC25aIlNNKYgCWCUHxNUph832Z7AcJqs5m3CCYebapDX3Bu600eCNc99HijN1EeY+IipkqnBcFCsFoPG5DTBaT81wvuf7/u79KD1VIQK31JiHDOitv+jhyFRPOWjlMgcOypyRbmYYHG14ML3wYZedhF1e6hx8vCZHkNfV/D24dBah9DQgq1bcbkkPHly5D4H1ts3Pwegh/WXQz1KnhZRwVw7+EIFz12RAnvnLI750YToEljWoX0/06NLBMxoLhM7AxvdQ9cs7UffKo7DVhZbw0BRCQblImeF7dbVr6x02+ZTDuZcy9AczofQhcHGtbV4bjB42QH895rjXlr7KaV7nPBsRvaX44sHx/SKQ6nqGwWu9ry8fhVcEDUTiytMgTsBob7ERqjlDg+scFzg/Pn5ACpVSm9hgNAK3AdYzRhdYC93VPeJe8qeFTJUt7tvQgX30VcLwqi0hI4RdWoKap36K6l98HnWz/6LPhanoTvkSz+fIf/guqn/2edT88q7wUf2LO508b/xNFZns0Yhp1IGda1Hz4LdQ/asvILDsTR3xCZaZ4c9An17d0Da3jdw7z7BPlpbh0LHjEWUfD8hzbV0QB48cR02N6JGUlJnpx8C+vXRu2kBWpDUjExZH3zZ5mj8qmJe/wOvRX6YP4+EbzGOCHlbo2hrE8znw9RykaTWPGyLPAb17oEimN2bF/lRFBQ4WlyTNc0sjiiGLKNn7nT4pLo/0hHJLBg2TPCdjB2bBzF1OPUgAk7iL9lZj7hvkDcGbPgxG2KLgp0t1VGs2iKBOV1dLb39cH+uQjNw22ejeuaNEecUvsTWVCGxfhcCaubD3b+UQ4sSEBM7ROLhtJYKb30Ngw0IE1s5DYN18uV8CW+bU9hGZN4bAnJrvlNS9YZGknQ/7qHTOLjC6U/vC8Co1Heyqymp9cUVHwWQghXIFvPj4Caejkv85Mvr17i7usczDvXZFHn3DpyL7u48g46o7ZfKeHb1uZhb3OvPau5H17T8i6xsPyfEgsr8ph5yzvvkAsr71B2R/70/I/MQ3dNXb296UJL2h9oVtpRopTwIqpbM9JIbMZ86MN/JubYhGV9QRWZwjoPq0ow167xzuNvC2BxEpzMDk954JLZ9/XHDHRUpPeO+9MPGagJ0TX23kfmJJwi3IeBubjzfKKkSWAtLDTfG42NUgOyPb5OoCVsb0a+EbwF9uNTR2fdlBRjBf35HwT78GvnHny5xSRjOGa+fgPG4hdJQt6ixz7MulzKuA7v1DMQ5oF/zNc0F+vuZhzlpRZk4DuFNnMgrNHNxXrLTMeWVUeZbOi5shRPPWOYXjc3H75FGHqFjgc/F2HeHr3FsfL/GwOvEs9536wJdXAPvYQQRLZBqlA1FDHvLycvTxGzlmLH/ayT3SdDVd0kfzsFoa0eiKasiaXv7oSUMckGkeDDPiYVpvOsJ7b+DOa86EN72ph/Cm94YbMNxbjkID5Y82qjdX/HALMp7GZnV8Vlkjxqz3cvAljJzsLL2vBxpd2w7IvPkeZH/9Pvgv/ISMTvyp3ZkRhV6N1isusX/Klcj66m+Rdct3YHXoJv2TdFD1tsJhWmnkviOQ9fn/Q9aXf4OMcRc480sX+ExZ6VF+2IXbqBQvouFqemyEjV5ONAz+0ogiZ7HZwgeNuWHjSGKZUgQ3L0fN776OullPhqcTMUHa2DF7D6kgsHcrav74PdQ981vYlc7jpzMScUjIzPAjJ4f0ODzzHWzutMLz2YgY0pKo7BxVRNUNgZtFCob3KoaQlIyw3Onc1wbxpiNMWi/cZbgPhrvz8NqUbXO+lJkrgdFKTQ/oXga4qCL/2DVy8Sfqox1RYCu3ACjoAEvmi2wHh9owF85fOVkyklr5BfroRueCJk1YGSUnrzOzYBUUAfmSLsvZItcN0sW/Z3SYi1WeRbgQYo3Q7vQ0CP7e2AkR3sVYo6+CS6rcPPi69RbvoZNU0ogRNwJLeLS6SlnSuTlzZP1fD+TD0ONwT/r5hyFnH6JITLiRHt/OlcYPMUv+lFlzyB8nxoH72oBh3vBoebxpeW3qItxnc0148xl40+jZL6NbHh9niBG5E6QAURVc6sn0+5AlI4Cj6JYuelVXcxHIAynDrijVRa6av/xE31TSFVi3YjtF6GOpwKp3Ufv3X6H2lccRPCEuKd8z1kiaZsg85Tq4bxvqnv0dap/+FYKblkqrO+UZmvm+dU1ogYxgzjYyQjd4TCSIxwshjXxfu414HgTrUa+Ej5caFCmJxeD9w6YgW+a8mR/7HCzpeNQ7MQQlAhmVfb2GIPsrvxZP5buhOTJH6jNgqeSZbWBLHdq5SmiW0MsOJxaSoqkZENmQ2VbSEFY79mjifgjc5PP6TKM7yc1BxGLVpGkAV0Skckw9PEcr36Qh3NcK3mTkSY9PnhrENhnRFJyh3IkiP48joZOGLucpmTM3yEGloiG/+xzqXrgfgdVv00dlROgIgW6lGB4XsGqZbs7TwMkjUryEh+mQs7hSXFCzj+xB3auPSZkPIbh9ldajKSQtFZN7X/EHBI6ScrshS+eQ+kw1DsP1KjdzcIsebhZIw2B0VVUVSssj8ExIgqDwHdyzVV8xNfPauDoNL5ivqkI6r+0IFsucW6cb9ekjqqtq9IciJsbnt3RFnaN0rHqToilFiNWJRBmRBVxd7NgT0LdiQmECb1GMYpj7cMNkNWcT75YHL90r2rx0Rde7joUG6UIB4fC8trDpbqUZ9QQujLZpk4WORYXiCDjhfNeaK7r1hGBA46HM6TnwTSwF04XS0iXnm0+5Uh7T5BWJl8FrcZvpknPFV9Jqav0jhpQh3pXwjraMb+hal54qF6UOPbOWPDTCju0KRKlFB5zQmIik3NlZwnM7oYuykMY9LYbDx1HcqjaSQtqbl6H6vq+i7vU/SydVIyEN08QFdlxixNUPfQe1//iN9JrcUtij5lI/d+A8KXyTFtLP0Zi7k3JVvSmIZWxNRaxOJIohSwYKpHM/BDv0lhEgHNoAhmxvHO9NWMSzi19e8mC4CXafvXGmHDdMOsLEG5lqfgm0i3qJIfMleic8FuJtkIhK6RI4r7j7Y79e3cXFFtdN7qnUO3YfENeupn5+yecr7ICs2/4Lbf7zCWRcdrsYnrinSryTxN97KLLv/hWy/+NxZH/nUbT57iNo8+1H5fpPaPOdx5BxyaeEKE4dnEbjFz98/UYj+6v3aXq+5qiPFAWsmotS3CHE7GTJLqBtbo5uuePVfyIeuahhZPjQvVtH55VHCeNrkDv37g89V24Iq7Aj/CMmw+oxUOyeFZ+RYUKgrPKkExo6URf5xMdnoEYZ2jn/548mSkpPSWdFntlGObrBYaTpRCKIZWzpRBRDFpCg9jIi9xyulySPLPJsDsKcTRzBM+8jHYT7OhoilU94wwn3dcRyJQF/o2t3HyyjUkdpSXeO+jCNHW+DNJaO8X6pe2DfHmgr7ioXvvh4h3tlcV/neq8EsqzMHPgHjoF/zAz4eg4WYwqNEDr/lfiC9vANnwTfmOnwjZ4mh5xD136e+RIEf5ebkQmbhskyC0RBR0yBb+QUWJ26i407NJNXGtiW9/eqe62LPxLVrUtH3QDQvVpuEI9cDM99e3ZFgX6LyfmRBn8yWHKytD7PhKT3DZmALJnXZlx2m76SqtMf/T11iH8uWul9KK/yKAdp5mHupS6+2pl914+RedPXYPGTvJyKMEbqIc+cq2/avgtlnE5IPZQHn6V3F75jIZ5OrKWgUolMoDRYTgHs/vzqYVZ45Zpg6lgsheMkj7vZI6mACeM5UpnR6nGHe9N471X3coqAwZNlwpoj8Q0V1CAeRY0Hbpnykrs79pARigotqoMdew5i9z7nxwT1IWOiGLq+biijKamxg9UI7FiLwKq5CKx4B8GVc1C34m09Aiud+0AojOfgyndlfj0P9oliKV+amAapj2ektJBSE6z7yLESrNq0Hdz0QNvA79MdRPjCRNKikHLJFt+t5h7auo2PBO/cewBbduzVuHqQAPtkMQJrF8Des0XcBEm/fwcCS16HffB9pT+4az2CS2cjyBdaArUIbFyiP+Hk75ZRdRrBNfMRWDPPefeBr7huWIzg+2uEXy6wudvC0p1BVmzYhjoxaEbx6COdDqc/kTovg1i6Ub+9vQzGRjzpG0ujhhyRQIZxFBsyHXaXAaoLkZJFKp7JNKlEJsJShOIVJjxSfDhOLtzp3GkpA7vHMOFlqtyERqk4kGiDuOGug9fdu3TAhOHOi/qchxWXnMD85esautcE80oaX1Fn/SUQdwWpm/Vn1P7+HtQ88A1UP/BN1D74Led44B5U//6bEi6H3NfIdfXvv47aP/03gttWiWHKiNZWOjGZO7MDMWCNfPlh+YYtMlLu0VGSdBaKWz1h9BDk8JVNj9HHDSmHoxzfXpswcrD+yoq5jxwrxbtL1+pbVPVGZbaJdDq1z92Purf+DruuUjqst4XPb8t5jtzXom7+i6j+w3dhcxOFqgoEXv4jah7/H9jcbODUMdT84xeofepnsEtlHn5oJ6r/+lPp1N4NtYNDO3kgTyvWbcHm7XukWvIsbnWbbJwzaojuXMJ3rw0S4dnb3okgnvSR0rjpc0kzApiZBjDyIuc+lI9Fuos194w2Z0LDXQlNvAlyp+XZxBMmnPCmiZSOPJlrwlxr/Rni0o66SOf83kcRsZBog0QDlYNfdJh+zmj9uRzvq2U04LY/O/cdFDc0UjOIi9h/NDKmXqXGzN8e6w8pyo7LKHQcqDgh5xO6EwYPXjuHxDOMaQJ18PUZLmVcKWXk1TNMGtKRklLMmrscp/hjDulgOHL27dUVE0YM0s+uuLn3yqIxJWdqfiVx6oSRDs8SUFdXh8Ur1jv7ZrkNWerlI6PMG74G/3DxmtiJ9eiPjMmXwerWX6cXvr7Dnfl9x64ywGTpHDhj/EWw8qWTys5zfso5ZqZ+M9vK74CMS25FxoU36zNllk+Q5hPC65xFK3FcpjWUO0dg7jA6efRQ8cxl4HLxmar2Txfc9DW+i2ZWttObb1kMSxSFnlrYeORgUe77BufQTaQ4Hu78hPvakKlhnoTedLw353rX9CR6jkHwmm85c/5QozY3+AIIP1WyeuN27Np/CNxcgJ8L5edfOGrxd7JevbGyZb7cbyQsmSv7B4zSVzd9XXojeHifdkj+0eeJsn4S/t7S2fKxTaXMuQdPQOaltyFDlNo//mJd/PIPm8TSnEIFxghnzV+Gv770hr4XzWfHNJirLpyKqy+S+bbQm6gie42bxsofY6zfuhPv794n935dLeY3jCfJqM9nzeEa+Mppz4Fi0IPFi8iE1aUP/OMucAxZPEO/zP39fBW1Yw/VR9+AMcL/DH3RReU09Bz4R4jHlZsnhlwI/8CxsAo7SHu7ebAxd8ka/PnFN/TTPLrZgdB4xQWT9Ise9Byaw3gb6wSTQewRmWLm/wGTEJxys2gjXxfUoDC8JEW6d4dFE5M3nPf1yvIUbNI3SBcCw7RNsmQkmnI90HuUBCRmxKkUOOfG/BD55edNQts8oUnCKqtr8eLsebodTsTHHmSgsCMyZlyLzOu+gqzrv4qM6VfD4kq2uJu+EZOQeeNX4OfIk18g82pxWfsOQ8a1X0IG0155hxq2Lhi5FJTKu2PfIfzzlTm6lxbv+YOO3l076o4h/PoE6Y0XRk5eI+B9lw5FuFI6h8IC55dGfFX15TcXYtHKDerahsG8PIwcuLjH0VUX+SSKW/xydDXxfGlE4p2RRepnHAcdtjzv6eW46GHHtPtAMZ588U39AQtHY/7UkivVHzt/CgqkTRLhuSlIR2fRiCELqPxc+Zv+Cdh9J8BqxDMliTyimQDDI8UxLBJ73rQmjQk3ZxPuLoMLdHafcbAn3yA9vnmXOH6kUuAsKyPTr9vMnDN6sBoO3dld+w7jH2JQx447u1U0AOXPQxjVZ+30jgo7wWon82dpFwbxJ4Bo20Hn1HzGrDC0a/4zfNAT4OZ/T74wG8tkrugPvcLID4ZfJp0MvYNgoHG+3Z0ceYvU6TGcncS5MqU4Z9RQuQ+q8e49dAR/eeEN3S2lwauqYbrlTNpNi+q9i65wfAiR4kMgDfzRyt9eehNLVnEbYmduzLovmjFeeB6inUw0JNqhe9Mnmj8ZNG7IIdg9pCEmXQebiiQ8e0lz3ydCNtNGEyHD3UckuONYlqlb2yWnCMHpH3ceO/ENnxYG58Z8rPOJK89Hx6K2OgLwneSV67dh596D0uAxmoMMSXq62Vlf+oW+zug/52LYdRLWoRuybv8+sv/jT8i86BYRAkfg+gZMUKErqqq043j+9bk6OrIzqZORafigPrj58vNkLs9HZC4DiQJvJxet02OH1a1zEW664jzdQ5oGQzms3bRd9wdLt5KTv1rxXl56YwGeefUdZxohVXKzh4F9uuNmoYtvoMUajaPxFg3xyiaV8MUlSDasjGj2ZDFkrvzGaRNe8iPdmzCeSYk7jaGMZ/d1JHjDeW8PmSGdz7Vyw17fW7sEp0mJYpXLUbcwP183atf2lYNzxvx8vsXVkMZ6kAwWX3YYNA4+mfdaHbszEPxxCxfGfMOn6PY+qqkukB7OwfnTQn625aG//QvHT5UrLXznuEv7Itz5iSvFmCPs5hkHGpMjRz5uEk8aHKYt6TByRQ5x8NwE8IsWfAHludfm4fdPvqBfqFSXWjyO9m3zcfuNl2H00AExjThVSJeuGfji7i2kF7U7DwCm3QI7pyAsf29uN7nm2qRxx0UKI8y99+wG87rzN0jDwahtDwTP/RTQvpeu3kZCunpKb7mmEXnme9YLl6+TuWmZvoDBbX/46KNP9y46UkVDWBFYNlfeaXBGAZnNhHlGU+bjSMz9pR/9x6v43Z9FoUucnTyp0DlZWbjxipk6T6SSp1om5JGfo1kkPB89djLEs4XxIwfp1j/pMCLyzIW0E6UVeOyZ1/UTrvwes1nA4882r79sJm64NLEFrnAbeBAt3I1k5RpP2UTcrrVqC0eRsZfDHnZe+Lf5rKYxEr2kmPSxSHSX6S2f+dx568Xzhg02Tugce7ETlkK4BRuvkE0jMv3OvYewYMUGHQmJooI8TJ0wArk54tKGlJrpqHR8HGK++pCoIjCP5hXXkntXf//Xj+P+Pz+vO384316S+asY1HWXTMcXP3WV89ZZkkYVizbOifcdPooFK9frr76YkiPx+VPHol1bTi/OyIYdCUdtw3OiCPMs543bd+OHv38Sv33iORzUxS0xWNYl8rj6oin46u3XoX27fHX940U0PpM1UoNYvEYr25snAUMWSG9vt+8GTL5e5p/8gLgT7C7SXa2XBHNv0vM+Mpn1y/SWHy0PoXwX9HBozOPrmKEeJ054BeS9dws2kQZkOfocdfVG7OQ3l0TBycnQAb0wbji/t+QsGNF4iX0Hj2L1hu36TSaJCBs183lpIhjG+SDTMC3vuYneI0+/gu/89A/411sLUV5ZrR0ElZdFXCmj8D133IgenTslpNCR6o8GOxDEqg1cA3AeuXH+PahPD93FksU4PNP4oItffDzHbXSJMzzzTbHGeeZov+/QUTz2z9fw7Z/8Ac++Nhflpyu1Xk4ZmP6SaRPw9c/eiF7dOktYch0XkYgMGkMkPWqsfG8eq7a2Nn5tJGRUto7ugu/xr8JaM6vB96Dc1ZuCGcZ6SZu7Mg13LqPnC529iJRPYYuyTLsNwTt+C/D31BEWbiikRIwwFaAyHSk5ge/+/BHMmrtEDYo/KPjaZ27AN++4Sdy9TB2xdu8/jDfmLcWsect0Mzi+/3vRtPE4f9JY9O7RWb+WqL+b9TQ0R1Mu5Jwqq9Dn1ItXbcQ7i1dj/dYd+iMNpwOg9x3UD31ffcFU/ZD6ADEq4x2kGjQsfvXw+7/+E154c77IIEPl8NVPX4/v3PUJ5YM/2qDb++b8ZXjl3ffUmLt17IALpo3Vj7z378V31MmzGKrkdYNtWFXNnyNWaBmLxNOZs2gV1m8RnqurpX4nPTsputNXXzAF377z4873nxLouM4GJG7IajrSoy98Gr4nvwFUntRHecbgvIUZdXOH11dBB2pXEuEuI1I6wtRFuNOqzbbrheBdD8E+52q+SqRx6UK8HQINiCvSby9aKaPjH/U5JsMG9OqOB394DybIHJnvIL/27hI53sNWuaZROs9Ibd11k89j+T5wv57d0Fvm0x2K2oa2C+JPBKt1s3XuI71j7wHdsZPPh2trAzoHVzrFreQH1fmq6Oduvhyfuvoi/fpiuoyYoOEtWL4e3/zRg+Jec5S10Fc6o4d+8A1MGjcc7+/Zj1fnLFWet+zYo9sLMQ2RJSNspw6F6NerG/r27C4jaCd0bl+onRDTcFsefiyem9/v3H8Qew8U69yf33BiZ8G6Ofqz4+rUvgC3XXsJ7rj5Cn1tNJ08txSSMGQBe8aSvfA98iX41r4B2/EGQ01wBpEKdqdxG6QbJtzkj1SuCatXhi0KO+kTCNx5P5DfKWG3Ol2gIfH94l88/DQefeZVhnCqpvPTu265WkcSur7bdu3TXyM5ruSZhSfhSkYQW+/NPDJTPCNeE/w1FRWWrjsfZ/EtLSozBcM5KEd6Gv2ksUPx+ZuvwoXTxul9OldryTM7o9/JHPWhp/6l2/6Qj8tmniOu7c36vvPLby3Chu07UVlJj4HzeWlC0+gCvlLKW7LCVX5+q8mZeog8ZCSvk/ja2jrlkfUZF5ydFnck4Sg+ZcxQ3H7j5eLVTGjSOkBrR3KGLMLilwGsdx6H9dR3YdVwg7NQnAf1DC2EaGH8I0WH46OmE3jDNSK/KwKf/S3s6bdEXamOBVUCtyalCPwUC3+2+NUf/B7rtu7UOV12pl+/y0uF48JMZU2NpiNfVDVuy6qLUkIO53c0WtJn5MI/+oKInFUW8oexjONvirkizREpP6cNhg3ojSsvnIKrLpymPy0kj+ng0w2OiPzZ4rd+/BBWrN8i9GcgM8OHEYP6wm/5heddOgKzw1K5yz92RtoBCW00UpbhuNOk1WkbRwLk3bl27hyeuesnDTU/N1t/bXbFBZNx/SUz0b93t2bhuSURlyFHVHBROhzZDt/DX4Rv41wgU+WvCkUYAbthol3JFLHuI8UZuMMRFBrHXI3Al/4g7nX3VjUac2R54vnZ+NGDfxPXz/m1k6G9TgzZKKxxBdtkZ2L04P76yVXOAd9bvRHbdx/Q7VqdlV9HCk676KUIJhQm5dD95M8Qxw7tr/PraRNGqWvKzoA7dLhlmA4YfXn6lTm4974/644o5E9CtdECfImFMgilC9gB3Vl0xMB+uGj6BDXGpWs2Y6t0BCfLynQ7YdKsvx0mn8wbYoL3LJv5u3Rsh5GDhOfp45TnPt076wjOTjEWz4YOA94T7rBUwFtPKtHAkOOujH5QQNzAf/8avud+IIbtCFujQmeCYebeG++OM2gsTaQ8DLSzC2Hf/AMEr/haKMyUlFok2hgcYfj712/L3PitBSvUPfQyR9eQriK32Bk5uB+uv+xcXCyuYN/Qb3mPyPyXb35x7rxNDJrzzZLjpagSBdeFHBnhuScYt6rp3aMrhg3sg2H9e6GXzKX5eEs7CakjWSVKlGfWx0Wu//7N43hh9jwdjcPMspwQz+yUuE3u8EG9ca1MM66YOUU8hi6ahC9v7N53CJvFk9m6a78ugh07cRKnpWNjZ5clPPOd8M4yz6fBDu7fW19ooczaKc9+7RDSYTjpNMhkkZxrLVBmaMxbF8L/yJ3AwW3OC1QCUyD1lddGbyPBxLvzGHjDzD1Rr0zxRe0B0xD80iOwe41Myq1uKqI1LsNnzV2K7/3iERSL8dGtNiOqbpMrBsyfOE4YMVhc3yk4d9IYXdDi6GnKYxnk1/nRQS3KTlfq94a50wXfX2Zafho1X+aALIuGbeiJ9Q5xukBDnrdsrbrV+w4d0zm9aT2xLZ0q0Gvg1IK/tLpg6hj01a2QnBc2CC/P5ZWVuqOHmROzg+SqN39DzF+VcZ9q5Zn/2GlpKWc/TDs2huRHZIKGXFkK39P/D9acR6UFQ42gfx0whPfmbOC9j4ZwflcGk0+D+CcjG8Erv4fgTf/tuPyi3K0BlCVHzN8+9qy+mMDHIQwzLjRHlDHi/t5w+Xn6Y4oeXTrqIxvmidQGzEvedWdKXhlBCDS9/FfDlaNh7uaB6o/0rI8+/apMJZ5Sw5UgpYcGzG12+SnZ6y6ZITyPRx/xIGiUsXgmKBe9NjyHkpJfJx/PTtjZBJVXCgjnSkI9eAs1gowIpuWvbUZeBCu3fXje4obJ7Za/N1ksPpiP0YYMNzV6zdGYL4CMnCnzdE7U02fEMWURBZwZ8jEPRw8u7nBRK0MUd9Loofjfr30GD/zvPfj09ZegZ9eOIgcx8CgKTTCciqsr1GIUnF+bg2EmbwxxRkUyvEWDZVvi8hbpxgJ8TFRVS54t/WXV9798Gx764T343M1XoH9PvisO5SUWzzzIWz2eeS2HcZ+jZG/1IO2pkH3SrnUYopRW8S74HvkirA1z9FFUJLJYCcNNZd40kcJNHoOIZQRl/jfxJgS/8EDKHjmlqpckWBbndv98dS7eXbwKBW3zcP6UcThPXOg+PTqrG2oes7Q2JCsH5uN3n557fR7emL9cP81y4dRxOH/yGP0uNF1teiXeolMp96bAS0dz05VMfU03ZKkU/EE7F71e/D8J4GZnTpQbrMQEx7o28MZHykNeraxCBD71U9iX3U3fTePdSHcjsHwiVh18vsmXM06cKte5HH8JxLCmLEC1dtAV5qM17gjCx2r8hGksF/psQCQDJ2Lx01T9i5bfG97AtU4YLCwrC/bQqUCRuLh0dRnsxIbhNkL3uTGYfG6YMLryNh819R9PzkKh9RGPEE2DJAOWH6sOlq2PR2Ru2LVTe3QoKtTFKbrC8dB2tsLwzGlFx/bk2R/ThT4b4KU9Hl6aym+0/N7whEfkiD2E5Yd18gB8j94Na+WrsGWqqsHOSWFyMKzetdwYO2K4yeO+NmgQFpRRbfx1CN79cNxudST6I/KUInAOxxcj+C6w7hEldfXr1RUDejvzww8i6Gls37Mfe/YfUdmygfv17Ko/5E8lmtpuqWr3dOpPvIhpyF4CoxIs4fzMh+/5H8L38i8Bf3SmTIzXYFksiwnfh86RoGXwT2Yegtf8J+zrvyeJxbnw0NacAo5UF8P4++Of/fFp/P2Vt5Eh93Qzv3DLVfjaZ29UVzNZ+pqTNzcaq5fxfDWTK/VPPD9L7zka33nzx/SXVpwftwTdyaClZJwMIrrWZIDwMhGVKYZnZMPmVyl0Z3/HziKBJbsNNGy0oUAT504TRqhQxukKOX/d1G+M1G1eK6uP5myESHUZHrhye0rmxyfLTuNkeaW+1BCJ3njRkgoWV72Shvt18020UuGZv8g6XcPvOZ1daAkZG9tLFBENOSkGqFxdBgDtOksBoTCBuXSX6C29MdKZXvOEEobvi8RV61L/C/yRkKxwmoxQvXQ1zZzYeVzixCVLFctJhKdU8R9vOdo+hlc5uFul6pQrf4u1SSuDWw68Tsr2BAkvdsVsgA495eitLclUqq8aceaeiFSCm3xeu++Z3p1Hr8l0576w23UVS3Gnbohowkm3MhmDa9+uQOeIfPmBn1ApKhCvReJiUx0biTR4ssrhRbzlkOd2wnPfnt10w/vecm5fKDy7OE4VTWc73HJoikxSs9hFyHwPp0vhf/IbsOb9NerzZAOW4I13h3lrqJdWIm1fBuxL70HwUz+WOXlk17o1gKPxkZLjOH6yXKfxHIf5jSF+NCxeRJV5KwVp5e+j+ZtoNhx55mo9f0/8EVIDr040/TmyAQ25uhK+F38E379/wY062IZhmErChioBQotzLYc3bThd6EwwTOP4JysXwRt/iODV39Q5ef2UrQt8FEPBG7AB6HY2N5qzQ/DyrK9StgDPZzMSaa+EXeuoYIXc4CyvSCiQRoxSfzhY2jgaicZgCV6bgzBn28qEnS89vL6/HApspaDRcp7oPrcEmsuIiTO8OsfZYMTujica4kkTDYnmTaS9mmTIJKwecfxqQXaeGJn0JKEgt0HyxqTm2X3NdPGQHU7DH0dk5Unm1uF2xmokjk66A4akMedYaCz+bACfl5NXc0TjqTXxGo8eNUXXmDdV/HrLicu1ZqbGGZCCJZ1vzqOwnvyadMnOt2fjAUv2Jo0WppDO3crrgLo7HwSmfrLRny3GR396wNcU+eGwVRu3OS+E+CxMHjMUMyaODqX44IFfrli4bL1+koayp1FPHD1Ef6LJ65Zqiw8y4hqRjeAb7U0kmfY6culO2VizedPyiJTfhJEMrvnqK5qhsFhIVHEa5TNOsBwaMnfF/M3jz+K+J57D/X95HkvWbhGaoteTqvqjIRXlRytD37GuDehGg/c9/pzyzK88LFmzWXcnaWl46U63rJsLCbnWMQ3CJQ+TypzdomKYuxhviUwbv2jpqoQuU4hUjRikrbq6Wj+appujSwDdzLb5OToy1xOEC6mqPxqSKd+r8FHLkHR8GeTo8ZOSxnlmzo3wC/PznA0GouRrLoPy0p2ILFqz0adwsSt0Dn3dT91fOevPg3kfOhimC2Gue3d8pCOcJlSmfnuKO2b6uTVq05DqxqlfnqXf4T1RVgH+qJ7fXsr0+9C5Q5EaNFlpDOlSnkTLpcLHk4cp+FrqcW7HK94IeeZrqfx9cjSeWW4ynUtzI9U0prJtG//QeSKQUYakWfs2wzp1XAwtExY/Z+rLgi0HvzTPayt01jDXYbmu3XEMN/k1TWYu7CEzYZ97K5Dv/Zh1K4KQlZHh01899ejSSXcE4a+Brr10uu4G0lKr1+kGf93VTfjr0a0T8tq00f2pr7l4un6JsjGeU6ncqSyrJZAI/al7jhyCxSH40HZg3yYZOWskwDXo0+DcxLFm3nrDo0EplfKzxZD7jAY69tHglkasEYVx3PK1LlCnX0Q4VVHpbLSenZ3yHr61gDzrb7BlRC4vPy18n9afMnLHkFg8x5LjR4iNlBuyFCldshivMczaarE9+sLSSBrAxTAnThesQteRYOLD6cQ10y/VE5xzarmtE1RK/rqJctBRSBSUYeb+g6iwbp71HWvhUdcCpO0+qDy3FsQ05KR7SCpsxQn4Fr8AbFkkBieK7LRnaFRNBpIxKwcYdQGCE69zrnUCnhiao9fnym1VTS0WLF+nij11wkjd6ZHz5A+KMnvlyHtub7tk9SZU19ZhmvDcNjcHAd2HOz40R9ucbXDLJJZ80jMicwRd/A/4n/gWUH5MNNuJiRckyG3zvFbw0wod+iH4hQcRHH8FIErSGkGBv7tkNf7r14+hrKxC5oczcOv1F2Nov96hEeqDB/I8f9k6/M99T6C45ASuOn8qbrvuEowY3FfnzNHwQTXe5uYrQROLAyE9tcpPAFVyxEA0NnVlmufQEQYFc7oEwYqToYAzoOAMeO2+TyVilWvoXblhK375yD/1U6JHT5bpD+x//MBTOHDkqH4GJhrSRXO6wa9brNywTXh+Glt27sXx0nI89a838aMH/6IflONe3tEQS9mNPFIhl+aWbXN3Tqk3ZDIgDWuPvQzB6bfC7tQfdoe+ztGx/hkRwvTo5LqWI2jiug5G8LzbgWHnOu66C27B8To+QcZu3EiNH6lcpnOnrThdrb/80TmihOflZGPquOH6RUV+jC0a0tn48SpyIunCaYXuisoqHDtxSp+Xk2d+NWPCyKG6Yh/P6nykeo08UiGXeMqIl/dUIlV1psG1DoH0lZUAJw7BYkPSuLlYZeK8tbrClDle88R5MPPz4M8VO3TXnUGkNCZ0MgjYUO7GYhluIUWO1yu9l0g1PDcaK4PzX45GVFQeTlp+GaEO/3z1HfzkD39DWflp/aTn//vyrfpTPs6Tk0Vj9DBOX4EM3Zs4c2ZO0nsG/BVW/fzuM+E1QjfP5MXQxM+ZPvvaPPz84b+rQd942bn4n6/drp9x5aYKHyE5ULbuNo6GRg053oIigoZLpaBeVJ8GSo/AoiLLPYtklAOnjjP3LvizYBd2AbKyqXea0Q7UqXIoXZKJ2TgP448TDK3cdpVfJFRIGuqvrqiGwHQB/ipHP2no0OJ2AZ14580k02fwW8N+uWAQ92UuK6/Ern2HsHDFen1Gyrmw38+6fPqo6f4nX9BvNv3X3bdhcP9eMqVPfk5fjx7l2PnEKnmqx7McTrzQK7S656dMx28kO3A6sgyh16QndKdLNW4J0/yUm7PPFo2+/HQl9hw8rJ+C5e+qr790pj4rp55USNwj/3wF6zbtwPe+dAtGDOqn5X2Y0CR78SCRssKG3FQCouaXcKuuBtYbf4T1zl/lXtJQb9xJzf0ZfToTz8/BXP4l2Od/hpqoRlJyohSPPP1vbJX5GDd24/NJLqxwpZTKxs3fXpw9H28tXKF08Thv8hjceu3Fmp9YsX4rnpS5K78UKNHo26sbvvDJq9GNrqDUc7TkpCrl+7sPqLHk5eTg9hsuxaSxw5TPA4eP4hcP/wMLlq9FcUkpxg4fiAd+8HUM7NtTDZZ1njxVrm828UNjpD0RuOXJa3YMTzw3C2s3va888Nu/n7jqQt34nTzTYLgZ/Etvzg8t5tuYcc5o5ZlfKmR/tWn7HvzpH6/qXtOM524lX/zUNejRmV+5sPXDa48/Owsbtu7QTis3pw1uv/5STBk7XFLbOHLsJH716DN4972VOHzsuH5w7v7//TqGDegTHp35zJhudteORSQiLXDLpqlIZVmNIZ11hbvrSBWwYje89/FCyz5+ENbutbD2rQPksPbLcUCuecg1zxrmPvbyWAOr7Cgr14M08GPgC2REeOmtRfj32+/pR9L4tT7nW7t0B21s2LYTL8+R+DmL8cqc90Q5d6qBMp6cHiouUcX/99uLtYyFy9erAup3lSRRRVWVrsK+/LZTxhsLluHg0eOS05EBy9p94Ah2HyyWkdDG5h17MHveMv3ImNYh8dyUvVun5N48c7cH6eEjneVrNgutpGcRXhee90rdykwIO/YcUF5J77/kvHrzDh2lSZBIBseOnxQ+DM+LlT+OooZnynXpmo1axysST34OHDkmJTvxpOngkaPYs/+wdBw2tu7aJ3Qs046T8URhfq6+tRa6TQsi6WokGJpiId6yUoGm1hWLnzN+VwR4K45GiGnkiGB4ZhvYk6+DPeJc3fEyTA5HDuqZJNGVarlmcvN42G6TB3vkJQiOvVzuJJepQxJz9TczI0OKc476j3Wcr/VpvByZmX4dYRw46UgzX+IP55eRXWNMFfKPrnam0JvJNJJW62AioYNfv+f3mpyPkQd19H1r4XIcLD6mrijBDkUNKQVgtXSTyU+G0ERPhAYYBkmTjoxfslCayXc9mZh4h19HNpzv1i+D5Sq/IZ61bSWKoueXHvU7yxLH9ubU4p1FK7H/cHHYxWcH5zwvDxUZhzElinjLjKqTLYBUyCEWPzENOV40KjCJtwdNQvDuRxC46xEEr/4egtM/heDEK2GPvQT2aOcIjr0U9jnXwD730whc931J/xiCdz0I9BwpVnFmrsXq+PofX0DgIgs/L0qjcYNfvGd4TV2tjpJnFlycdFQ4J79zqPJpjAPyVCth1bU1Wgfr0zqc/2jTpo2uQtNt7S9u+S1XX4TP3ngFCtvmp8R4IzU83eeaEM/O50Vd9Qi9vDc8K98eOsiT5pcRlOe6Oplzu+RGuVIORiZ1cjDeocTWLylyFZofpOvdvQtu/th5uOPmy1FUUBCV55Y0pqYYT6o7oKbKoTF60rdq7QXp0F9GSYPLnFm0RKypjsOWE08qSCzfzebomZktZ/M65hkj5gIO90t+XubAe8W15SjFRx1XnD8Fo4f0d5RVFPDdxSuxdO0Wx22Uf+NHDsZlMyfqyEFs3rFb3MclqArtt9y9cyfccNl0XVlmGSdOncILsxfKaHNUR2K+G33VBVMwYlBfVVq2y+qN27Hn4BEMG9gbfbp31RHL/HTPCzaEaUz3dTxgerrAdIe37d4nMpCRVUbFS2ecgwmjhmhZpIlvVfFDcZwPs/SxwwbgivMmI0tGX+7awoW5l95YgLKK01IodD3gxstmomP7dtQ03YP6lXcWY/vu/ToPp+FeKflHDqVcuZBmY+O2Xdi+5yAG9+ulHyWnZ0JWEuGntSHR9kgETSk7kbxNNuTECaWx8ghdR4IpT8+Ryw4nkX9OUTTX+tA5sZyZlGfS6kZ9ujkPDF2GwPwaHqLBm5/Kzo6FhXM09HoFqYSWLPQ4FBEN6TVpDLz0EuQ5VhmEWy5O/JlE5NdMU8gzR+wzqVOLxHWr5dDStMZlyK1RoF4l9dLnRLvSSLyXg8bLiB3f3CA9pMhQEYme+jQLz54kXp4Idzkm3tTT0jy3BCiDs43vBoYciYnWwFgiNERLm2h4LKRCJqko44MGr0xas4yi0dYSNDdY7IpEQGsVZDREozfR8FhgHjZYsog3bzJ1NIWudKMx2rxtkUzbNBdSqU/Jwsiz+Ra7PkJCYAO1ZiX+CK0LDUbkSGjNPXxrgFs+qZLV2WjEH+lJyyEuQ24ppTpbFMMtn9ZggC0ltw+jB9FadDQuQ04lEmHcrRit1ahbI13NbVCxZNBU+bSUfOOtt7V0Xs1uyIkw3hqNxIt4+EmGj6bkaa76DGLJoKmK3lKGksp6m9Iu8SLthuwlPhFm3MI0180hlETgpScSXckoRVPypKO+WPJuLW3RmuCWSSLtkqws027IXuKTUTIDMpmIUJoDXnrM+YOm3LHkHU9bpFseiZSfDlpYprvcaDJprO54ZBkJaTXkeAVm0qWCyXjrNEg0vRvuvN5ykm2QDyrSJQ8j90TKTwctLDOectMlh7QacrxEm3Tm3BTjilRnrPKaIlh3Xm85TeGhKWipet1oDTSkGqnkKR3yafbFrnjQFOOKhFSXFw8SrTNVjRurQ2kuA2tOecdbV1N5bypP7vqjlRVPW0ULb/bFrrMFsehOB0/pUn6Wa+h1X3/YkC75xot46neniZY+WnizL3adLfDS7TaASDyly0AilZtoXW56Y/H1EZoH6ZB5kwz5w6QEjXVIjcVHk5U7PFKaSOU2VlcicJfVnO3ZGN+tAemiK5XtZ9AkQ041QS3VoOmul+VHk1U6GjVZNCct7roi1dsajDtV8mgOXuoZcvQKGe4+zqRNJZH1BMdtgTLk8MuRANJBV1MRr0JES0deuCmebriXIF8mr9kGuLkQi07GkZ5Y/KTKiFoDUtkhRJNX4z9j5B5ant0YpTTnzP22eCQBEhSZQSnbDsDavwk4uBXo1Ad2v/FCg58SCaVJHtHrbRxUPpPfHIS3THe6ehvkeRAPLUxTVVWF4uJive/UqRNycrhPVnw8lJWVoaSkRPMwL40n3rzJgPTyMNesy80nz6Jzyg/PnTp3Ql5uXjguHrjL+6AjXl5jG7K0h7V7HazNC0TK3FSOjeKDnVcAdB0Iu/coIL8IKf0qIpWgrga+l34ux/0InvdJBO/8rYzMbZSGlgJ3lzxw4ABKS0t1B80ePXogPz+/gaG609F4evXqpemTVTx2ClT6uXPn6v3MmTPRtWvXmB2EG9u3b8eSJUvQrVs3nHvuuU2iJR4cPXrU6XRYBftkT10dO3ZUuc2bNw8nTpzA+eefjz59nA3uP0Ly8N97770/CF17IK0gSuRb8TKsv38f1oa34Nu8UM7vwrf6DQl/DdbezTJE9JTWkSNOGzO9dVQwno1fUwlIh2EPnQr0HqkdSEuBNNfU1GDdunVYv269Kmq7du1UKd2KynTHjx/HsmXLsG3bNh0NafC5ublNMp6Kigrs2LlDN7rr27cv2rZtG3d5HI337NmjeZiX+2KnC+xcdu7ciRUrVuDAwQM4dPBQ+Dh48KAerL979+6atrCwUDsYdi5uvWhURz5CA8S2DtEVO1gHq06MqucwBG/5IQJ33Ifgdf+BYNcBsJY+C+up/wJ2r5eSnE3ZtRF4cG5LpfHMc20aJMPc6fXCFS7zY3vClQh+7newz71V4lzuYMSyvQ0fIU2CyuFVJtbPg5vR09U9dOiQGrc7HZWTRs6RxqT3wswNzbw1mtK60zENt8A1aXnWsAj5GWbC3YcXDHPXweumwNShMhI50GuYPHUypk6bqse0adMwdepU9O/fH9nZ2Rg9ejSmTJmCoqKisJwM7e5rQ6fhn9duuZjDhPOaMOGReNPyXGGSMhxm8hNart8p1xtHuPOYa4L3JszQauLShXojcn1C5ZrE7FwJa+3bsAdOQvCm7wNDp8soOR0YPhMoPQzf2jckrRjf8BnOXtQ0yGAtrEPbYO1YAevYPseQ8py9k62SfbAOb4dlizvepq1TD4+KElgHtsA6XQrk5AOnip103AM7R1x5CoJHUObPh7ZK2UJX8S6pTupm2Qas35J6inc69R/eIaWLojAN49TnSwyUC12/ffv2qZHynsrapUsXdROpiAyrrq7Gpk2bcOwYP19jqWvdv19/5OQ6c1qGcXSl+8lyWEZWVla9RjZlM57l8DtSnEtyVCX69e2ndZ4+fRqnTp3ScjMzMzUfr8vLy9UT4D1HP47IpLugoEBdWDMiM55p2fGwHIK0MDwZmPqPHDmCw4cP65Ri/Ljx6Ny5s87NeRi3mvyxTvJAJSdN7Bw5HWEcQbopT8qG4YG6gKiRX68pv5rqGu0QmJ/lMIx8Uxbkg7SYMtl2hjeWzzDK1YTVBepQdqoMpytPKy0sk+Fsq5JjJTh58iT4wT93WxkeKisrNT2vmY7eBe9NW5Au1kcwf1MQq21iu9bMuHO5GOub+m1ie8LHhJo8NUi07QBk58FaNxtW+XHYo84H2nWV65Pwvfkw/H//b/1om7XkJfg2LZL0MpfuNkhc8lfge+K70lIHYQ+XDiEr1zHO+U/B95f/UJfaHjIZ1sKn4X9KOo7Kctgj+akZ6STKjsM3+yH4nr5Xyn5Syha3f9N8MdJCoPsQoVeMuq4KvsXPSVn/Ceutx2C99wKs9e+oEOzew6QcESbpTwDMS2OiQVBZaBRUHrqGVFQ2GtPQrd68ebM2No/srGz069dPDZnKtGvXLrz33nvYuHGjXtM4qQgclaiULIf1bNiwAUuXLlX3nGmMcbJMlpeXl4etW7fq3JcKRVeV9VM516xZg9WrV6s7T8Mxhmxcayo609EFJi3seEjL/gP7pcUtdOjQIaysicIYMr0VGm7Pnj0duUs4DwPyzOnHli1b0L59e5Xj/v37sWDBAu3AmH/lypVKBw1r8eLFWi55odtOuezft19lSnlRVpz2kCe2Acsk/+xQFi5cqGXShSfvLGPRokVqYJQbwxg/f8F8rZfpWOeOHTu03E0bN2Hnrp3Yu3dvvbaikTP+/fffV10gvaSRUymWSRrZPpQv6eK6CQ2ctFEmqYC7nHCLmcCIlUgb6Khmbtgo/C/uNTr2g1V6VEZnOQIyEs/9M3wv/lSS1MG++LNi/JcDe1fD9+yPYO1ZDbvXcImTdBvmwDqyUyiQ+mQUtjbOA04cgN19sBh3Ptg5oFhG9fISqVPS1ErvvECM/aWfwwpUwb7wdtiTrgYObYL/mR/C2rZEy7JWz4bvH/cCJ6WsGTeLa36L0HYIvhd+Ct+q18mgU14MRJIBw6iMVC42NkdbKh8bl2E0KM4BOQpQgdnYdMNFhTUv07Lh2XPTGIcOHaoNS6OlEtK4iN27d2Pt2rWqoAMGDNBRlD0663F/p4mjFY2bZ2MkPJtw5me9DXiRpDRs0kJlHDRoEAYOGIjK05XaATAuEv/xwuQlLTQ08mUO3hOUFZWfHZThm2fSQ/4pR3YoNBrmYToaAo2QnRHlX15RrnKiYXMUpDxz83KVfnZyzMcOj3XRs6kor1CaeE0vhEZnRkqOpDRmGiDLYufJzoNyHDxkMEaMGKFtzLZi58MyySfbhGXRaPm9rc6dOuuoy45x+fLlGj9w4EA9yC87WfKWbEfphWl3QkskUW5lcIO9tCRQBQgfBhzdsjmiSmPISKiu7oK/qysd/Pi9CH7m1zLPvQ/2lOvFbd4ko/c82F3E+IdOhXXysGjtOi3GKtkD3x6ZZ8uIbQ+ZIlSJa8I6db4sJMqc2Tq2G9biZ2CLMgeu+0+n7M/8Ugz1NuDoHlhbF4vBFsO36Glxy48geOU9CN75ewTv+K10KHdK3BEx8jfFAiqcMmPAKwPChFFWZqGLikUFYMOwodhIVB4qmlFozu1o3KbnpsLNmDFD54eTJk0KKw7LovFRkanUQ4YMwfTp03VeOWbMGFUy/U6TU6yWbw4vSA/D3XzwXukU95G0UMlGjhypK9mcvw4bNkzD2OHQCCKVmwhoeFxpf/fdd/XMg96KMQLCKLS7LsqPsrnkkku0I2Ma8kGXfPz48Uor4+kJcY2Co/m06dMwbeo0jBk9RjtHGik7BY7KbCvyVVZepnKl4ZE/5j1eclzpYefKOtimlDPDOLJOnDhR65o8eTJGjxpFJdCymZfpjUzZMV9y6SU4Z+I5Gk5DZlsa+bIdhw8frh0SR3bS4ea5KbIOy5J/3A3uBUcU/lUF0k8mOpd61ntRGBPA575iVMgtgFVxEtbyV8R431HXmR8nh8yP1fCHnadC8ckclh9At/aKER8/APQdC3Tuo+kNtEY+djqyGzgsR9dBznycL4zkFCJ40Z0IfPY3sEeIay8jOvZtkjraSMci5a6aBWvla0CVNBRpPSbx4qoL4Vp2MqCs2OtyMYcNQuOlYtCg1YXr2q3BqjKVinE0WuPOEWb+yHi6hFQ4NjbTGReNoLIyjG0Rqa0YxgY1hxeMN/kMLSybdLPjoHKZhTvGUwmjIVL5hDecvNBo6MLyzIMjoKEjGp00WMqFHg1dXJOOMm+bxzUVaXbxhigT46rm5uRqunaF7TQd24X88Jrx5JN1U7bknSM9+T9SfEQ7Vxoy7820ggtyF1xwgc7zmZ7Gy+9cWxLHst0dHfOxTTnd4jX55gjPa/LjlS9p8MrXyCQZmLyxhyapmP9oTZo8VJ+p1hamUCsjMUdOjs6VZeJeV4lR7ofvnz+B/49fge/Rb8K3XAzKn8OHrFqm3X8c7KLuwI5VAF/82LFSKBHGh0x1FsDCz4tDjS0jkVVxQuqq1Lm5nStzYo5OZKLnCBlx74I9WObVUr9VIyNuZSl8rz0M3x++Ct/DX4dvzt+lJBqFjFT0HlIAGjKVjobMhuP8ig3sNlRtbPlPd9coFg3SgIpoHk1x1GY6NjKVmMpqGoln/tPWCCmQGwyLpgwMZ7zJV1tTq8rIejhX50g5b/48dUc5EjF9MPzlyoaIVY/73Lt3bx1VL730Uj0uu+wyXakmz+4yvPwYXngYehRyogwIGpubZ00v/7jCbEZwHqyLHSU7BBoyOxMaLkd6tt/xE8e1A6ULzXagMbK9aGx0g99++2093nnnnfD0h+UbsA5Dv6HVtCHbm3n4vJwHXXJDlztfqhDdkFlPqFLn1lOxEEL32CrZL4bVTgysEyWsg7Yto2bgk/+NwOfE/b3jlwjc+QACX3kMwQs+I/kyYHfqDXvAOHGX98K3+nVYO2Tu3KkPgnSrWbT+Jai8AjaanyuMXMyqCXcICtInc3Matk2XnPXnd0Lw6q8h+PnfhOq/X+p/HMHrv+3QyvwJwit4NjpdaCoIXWMurHCU6NjJebbsPtj4PNjYbuWUWDV+gkpn6vDWxXv+Y3r+N2GEKYsIlxuql2A6dxojXHYodP3o5tM1pfvHUYjuaUaW8/3jZKC0ysHOyKxW86DbSk/FC2890eol70YHE6GNbUJ3nZ0tO13KmZ0tDbm6qlqnADRuk46r4ZwLr1q1SusZJS41pzecErFDYPvFgulI2BFzSjR9xnSVL+XMl18Yxg69sXLihdGD6IZMWWmj8Cy37IkyZdTlgoswhPITuiKM4wcBvkLZua8asy0jqhWQzIMmwZ7xcdgzPynz2E/owhPDtLCcInGFxb0Oirux/F9AsbjMAycAXfo5BimCcMhz/rKDQFEX2HmF0nEcgEU3nFF8rLVlEXx//T6sFa/IBEtGa3YoMqJYvWWknn6Tq36hZeQF4qOJZ2CsIQkYw2Cj0pAJ9rY0aN5zlDbCNWc2Kg+Ouuzt2dhUKPN4hGUxH5WfjWxcbJOO9bkbnuUynGDvz3jTETAdz6ZuNxjWRqYdrIcdCJWXi11DBg/ROfngwYPRrbuzapso3PWRHoK0uA8TnihM2dqRCSLxFg2UO11musg0WnYm2uFKx0I+OZ/lKGrmxzolOFqsMho7dqwudHGBjWUYGD4i0cEOkqM7+aULP3jQ4PryFR1hu6YKhhafm5gGhGkiJ8wqLYa1YZ7zKGfBP+B78lvwvfME7B7DEbzw8zrS2T2HwR56rsxlt8H6169hbZqrc1bOlX3P/RTW7tVifMKEMGIPniqjcC9Yu9aoQQdHimGH3WpDh2PUNpWAq9kjpGwuqM36A6ytS2CtfRP+F34Ma85jsE4dBWSkx+hLYJ2W+flrD4lxv6quu7V+DvzPS/3r3pYyGwrfIB4FcTciG59zMPb2VArOa02PTJgzjZTzLbpmXPDhnInzLj7a4ByS5XDUMkpHZeJjC6bjKMJVUY4aXDijMrMOzgepbHQXOQ9jOXSP6RkYRTH88ExaaLz0JHr26KmuHzsg5uVCG1d79Y0sUXbW40VjsvHybM7Jwp2f12Y0JqKVzXBvPnaMlC15Z8fJZ/+UM9uEC2GcH7PtOnXspDxSdhkyQLCtKBeuclP+69ev107TKwfvPcvlaM82ZB4jX7YlH1GxfRqTZTzwluHzMu4FjQh10stvew/+h74I/69vhf/hL8O35HnY/cYieOtPYPPlELqIBTJqXvE1fXnEWvICfL++Bf6fXQv/g5+H9dbjwMHtpICl6qKWPVBc6WpeDxBXW0ZrU70ksVlebZ2M7gG5lev8jrqwZQ8YDx+fMf/qZvjvvx3YukhG3hsQHH+5PtcOXvBZBCdcJZ3Iu/A/cAf8P70O/vs+LYb9ALBzBQuW8iP3iJH4N2Ace1kqBK95sOc1xsvel0ZoymA6MwpxtOS8jKubnEtz3jV79mx14WhY7PU5UnBEYK9NxWPDv/XWW3rQ6Kl8fHHB1E0Xno+5OKLz+eusWbNU4TgimBGQYFpDC5GRmaGPVAwtc+bM0bykiYpHpTM8uMGweBSQ6Uxd0cBy3DQZuMPcdTHMPMpz08FwL62a1hXOtDRYPtOnUXMhjWGUk7mm8RUUFmgehrNNCc6TKRt2cGxD4y2xEyRILw9TF8/sFDj6sm3YCXN+zTIoZyPfVMDLd8QXQshcSFawaoVo/jBCXF+7z0gx3tFiuDMQPO/TsD/mGK0Uy5KZEeggQpAwu524uDl5sIq6wR42A/ZlX3BcWy6KEbrqLPPVwo7AxKtlhBaj5hyY4KjMhbR2XbUuLmip8UlZGDhROgzJw9VvGaXt8z+N4OVfkbjubEVx79vDHjQRdoeeQG6+3MucVe6DF90BTLouNOrXF0JjCCuO0FVYUKhzLM6nCI6KPOh+cXQmqEg0bhokRwAaKNNQcag0bGzm5zNiLgCxPAOGs0PIzMpU46Urxnkay6ZLyN6eCsUy2HkwDe85qrNDYHp2MF27OYtxVDTWzXCmIV05bXL0V0fsPFgO05M2PoIyL40kAyoXeTd004C8oCyNoZF+pqPxcARkvZQF5Wa8CqalEZE+HqTX1EP6mV8XqUJpmY98Uu6UC8E87MAYxkU43pMO1se6aXTGqJmfdLMdmJ9ls3OlcTItaSZ9jGN9bBc+qWiTc2YRk/ybtmY6c0/5ut+uixdG/2Ihvq8xakFMxrMc4ZO4bLrC6S5CItgIfIRUV+UYDV/d9ItyCOP1jMhNoDuc0Cj5o8EmzlU2V7Bp3JkUoFKiDaxQJZDrWqmf9LHz0De6GCx5Y4BCc/d23vtoiCedSUMFIKg0PBhm8ppG4z2N0J1GZeKqwl0er6nw5tqUZ+ANM/WYEcXMsQlvXoNI5caDRPJFShsrf7S4RMrxhpt7006UjUGkMolo4SyDcZHaOpVIwJAdwsKapKcYWZknxIxjQI5QGiCcxlsW84cuvXH1ypa4SIJpUL/+0dtoiNbQqUa0xncjnjSESUckQ3s8+d1ycV83Beko0yCVNBIsK9ky3WV4EavMROv76PvIH6FRJKvEH6H54ExEmhGmh0oG0fI2pcymIBX1thTt8YL0fdiNuLW3EdGoIaeaiaYoRbS8LaVoqai3tRtJa6evOeCWQWP20FJG36ghf9SQZz/OhhHlbEFj9tBS9tKsrvVHCtUQzSGTdCmXm/ZIfHxY2rs18Jl2Q24tjdmY0qUC3nLjqSceI0uE3lTy1lhZbtoj8ZFsB5KMHJuCppafro4yESS8ak2mWwXhHjrioStR2hNJ31rk8hE+nEh4RG4tyuqlIx66EqU9kfSJpKXRf4QzaC3yIB1na9s06xy5NSAdDZVomTR6bx73fTqVqbGyk6k7Vp54yku0g00XSEc0WtLZJqnAB2axK96y06E0yZTpzeO+TweNBt6yvXJLBS9upJOX5oJXRq1Bj+sD+P+jpSNI3hOpqgAAAABJRU5ErkJggg==;imageBorder=none;imageBackground=none;" vertex="1" parent="1">
          <mxGeometry x="570" y="350" width="158.98" height="90" as="geometry" />
        </mxCell>
        <mxCell id="HnhsPbhekzyfCZBb2tJA-2" value="" style="shape=image;verticalLabelPosition=bottom;labelBackgroundColor=default;verticalAlign=top;aspect=fixed;imageAspect=0;image=data:image/png,iVBORw0KGgoAAAANSUhEUgAAAJYAAACKCAYAAABIFbMCAAAAAXNSR0IArs4c6QAAAARnQU1BAACxjwv8YQUAAAAJcEhZcwAAEnQAABJ0Ad5mH3gAADsPSURBVHhe7X0JuBzVdeap7n7vSUIrSOyL2AwIYzCbwQvYBtvYBu9LPJNlEseeSTz+nMTjyTfODE48X5x8M9nmi8fJeEm8JjYmNo6NgbCZxTJiFZuQhEBCQkISQkJofa+7qub/z72n+lZ1db9+r7ufHuD/vep77rnnnLuduvfW7eqqqF6vpzJJRFEkaTpp9V9iAui1ralPTFV/VXw4KfzSqcphndgP9MshqD+I/mpX154cqwz9bNSJYKL5DqLzDf3swHa2DlQ7F9GufJNyrE6VGsRZ0Q0mmu+BKmcZiu3ZjdP0o/yDdM5JOdZ06pTpgF7bo6g/Ve07yHx6WrxPZ/BsLGu4ifIVPLP92e3klATIRxDqkdZ4G1svExwwx+rYkQca3okUKGM6ul9k3y5JxvZJ1KiLxA1J6w2kxRjzMehXaxLVhkSGZ0o0MkOiGQeJDM1wTudtvJTQTd+9ZEesicOPPjwacJwXdog8v1XSndskfvZpkS3rwdsuCRxM9u8VGd0naWNMoiodCs406yCJ5iyU6ODDJDrkCIkWHSnRgsMlmr8IaXPYG5rLS83J2uFl61jZWWcdnnBk2iPJlg0i61ZIjCPZ9ISk258R2fOCpGMYtWI3WkVpImmSqJOonagiUaUmUuPhHW3uwVI59FiJjj5JosVLpHrMqXA6ONrwiJskX+IO9vIesehUdBI4TvLUKklW3yfJmock2bgKo9U2ONMoHA7THVxBRb0fugaL3EynfHBSxijH/SLQFORoNoLpceGRUj1uiVROOVcqp+FYdDSmyhFn8CWKl69jseMxCiVbnpJ4+W0SP3iHpOtXwcmelwjO5BqFn3QYJ65+wGjYYogrCzwn2dTK1iFUhiNxxKqeeKZUzrxIqqefr1OlVKre8IFBcb3Ur7XvtHQsVo7oRwVb4D0k3faMxI8shVPdilFquaQYoaIEC3K6hW9c18hOhcgVBzyyi+lK+njTw/jvBCMs6iOMWJUlF0jtvLdKdNKZWOzP9sJTi9CJ+uVQBG1NO8fqZwVDmJMIruqSjWukvvRHEt97kwgW5mgECLDrzSMcvE9AFyEIhoTRWkqjNdLUCaFqJqPKWJNhQV9ZfLpUL3iHVM9+oxu9LIMpwiDb+uUxFVqH7dsj8ZoHJb7zGkx9t+OK71nf0S6dgWtnfnie/yi2P/k5VgujHC4PCFK2NiwRFvjVC98ptde+U6LDj8fMWO2qswflFO3QbX4m15VjlRnNDExxBbtFS7n27lZnqt96laRPPCjpvt2Q4ULbJUNcafoHUayRpYcgj1A+aEbzMs3pVKECjnQElTB6LThMqudcItWLPyBVjGIC5+JFRS8YZL90Y7unEWsQhR/P5qTyhBPFD90h9eu/ifXUAzod0k7Oi0AXzVKEIJ+0hZQviGZQFcoy8HKhbtuizzlYame/WWpv/XVMkUuwqO8kPP0x7W6bGc/mRPNM9+6SxsM/l/qN/4SRarlE3ItiD/t+08PLFmHpOaciH4cnFcZXkKYAdZXRBG0Qpbq7tkt8/83SuOV7kmzA1aluc4SS0w96cgYI432/baYMxQIMAi15MI5FebL6fmncBKdCmCKeW6B7kqKh47QtLp3FOwcDivEwHkHa0ohiSJh4yCNSOtc9/ybx7T+UdPMGz52+KJ7kYXxKHGsQI9u4SBJJnnlSGj//V3UqaezXnmRnmiNZD5NWZ/JhFgcyWcAHTRsIeXhRD66rmrIqY5EAap9yluaNpLu2SWPZ9ZLAwWT3TvDzXTQVJ2k/kCv1i6XQZcg5L6qRPP+sNO6+QZJHl0o6upfdrX0XdrR1bgbQmRMhVAfxYdg0KuL5ngzANaAnmavXJStng4zABgO2f8SE7ZvgXNdK49FfuK+SAsXJnKQHol9zjtWu0GUFm25OmJWH4eh+SVfcJTEcK4WDKW8csOph/akSNofRZipsKfKMb7SP5lDWvMyT8kzTdKVjSZ5eLfFd10q66YlyxQlgIv3aL3Q1FZYVrF1he8VkK5uVh9/9bVmPtcqN6JQnmeD4QFhi68yMibgb01yagaSZUL7SjsHPzE5AaxQ066JxHGbTQoPJ5AGh+qgkK+91+206JRYUu8B4bemculxmsv1gmJI1VrdwjexauVkxhKQ1HtDFw6fxKlC/qnn8AZF4FCy4C5OdRCZqYFwPOoCPmzMQPmjynZSzFcr5UO17mtA4YOkK8FTMp2lQkNMcXnhOkgduleTJhyWNE9jyQgHaOUDYlp3QTqaM3y6vECYzrRxLK8OCVSroG6sEeLxFJW6IjO1Tx+EZzJBfIkuMy3JuJlIccunmddJ46A5dY2njOguabE1llglmqUcQV0Ao146ebw3HqIkSJpvrD9BWJSIzRz4Ci6uKfhSQNiRZv0rih5eK7N4BR8wsjItunGqimIijHrCvdFrOKL36QZwOhGkg3fW8JDvcjXbc45E9u7GQ3Yu0MXcrS7UmMjyid2pGs+dKNOdgkRmzMFr9QuLbrpZ0+2aXhxp3Q75lp92DD43ig/2Vb7OmPGWZFMq0ynuAT3kiTKc8ken7D7XP0HiAaxMXY+nTqCqVk14tw7/yaamcdr7y+4GW9u8zDvx3hWxZjDp65QYn4n1RKTcIN6+VFI6V7NyO0WmnRPv3waEaaAxMCVDTQlO3UnO3As+ZD8eaLbJji6TPbcI0hdGLMr7byjq3WXEnQ+gnPsI2184P4gZnI++0hmJ+RTibzTUO5SwfCwk6l8w5RGpv+w0cv4oTaIEbwXvEeI7Vq+MN3LHaFpDfkaHzE05rWGQnj9+vXxDrXZtwDn4NoyMTdVWdjekcJG+OETCZ4Luan4pA1qU4qA2GLlqw59PNLAJNxofxi2UoxhU8AcB0bAjwKxpSFAZMXmP+O0uuq4pmlFMdkuiMN8jwv/9DqRzzCnWsyXR8tzplchPNr9SxJlPorgHbMI5RaLckG5+QZMVSSR65SzczuVhN+T0e10z6XZlTYUA1R5ATdIznW1Imgo+cDFCMF9GssiN0AZ3JsvMZR5qtugFfnSw0RLMwPc89ROuRjmK05b3y+zAq82RR9aaNDGSpkUIa7R95ggx/6Pelet5bYHPIMacYE/GLqZ8K4Tjx1vWS4DI6eeBnEj+1Euun5yXiL1+0x0saNuCZU4SdaWoq5WmK5zq6oOfk/VTk5VxAAa73nJBuWBLenop7FuFN5fkzD5Khsy/RG/k4Vad7dkiybSNOpHWSrl+p9ZcGrljxpyreiNmwIilbBVCOmXOleslHZOg9vyPRQfPA6n06HCR6dqzuvBhNxMbiveVPPCiNu34q6UMYqXY84xbrbEF8FDvNwZq4FZk8kwM98omyYnVOQyJGmcphx8E55kjKy306wZ6dXgKACActy1PJnE04wdyFMnz5b8vIpb+KC4xhTUjjut6lGj9+n9Tvu1XiFXdjhH42LHYAl0FWPwLOXj3nUhn6tc9K5dBjgoTpiernPve5P/Z0BjawNnI/YI2+8zlp3H+TNG7+LkarO3DV9xyYWCvo2iPMCw3G/EGxCF2Vw4uoPEL3uwautVznOGM4fOC6xI9WhgquvrB+Gb74fTJ00XtkiPeln/BKqcyepxcVqTpXU95UGVofO5YvO39IwbUT9FJcyUa4Yq3MP0SqR50kFUxr0dCwJNtxobHvBdUimsVx5c75DuvDu05POlMqhxwBkWm1U9SCAU+FbClcnT37tDSW/gTHj91uONdRXHvQhyARFkDj+AhHhTAMdazxi53AdMJklC6RC1FZeLQMv+M3Zej175Jo3sHgQJhfZD/3jIxd/w1p3Pp9ScKRK0CxHOqwI7hShR1da81eINUjF+t2Qe3U86Qyb6GkcKqxO38kYz/7vqTPrM3VyZArKyLRYcfK0Ps/pXeb8u7TtpWZIFjefq+pq1deeWXpiDVZ5HRR2IRfr9x2tTT0VpB1eqWnFTFP8eiUo5rEwbobHaKsuOTxKLZXKOtoCKCTqqeeK0OX/IqbBjkaMLHi7k1nyN8Zps9tzhsAClEw9F+nPv6wVUe7zU9J/PRqSbCe5OYuR67K4cchL0xpo/tx4bJWf9PoNEtsekQoV+X40zGSvsrt401jlI6nvXiv6vqWSZ7bKDHOdHWqZzf4XvYL1oJ3hDmquk9mQLWyIqlYIFeGUIYwO+RlNByLDlWZy5GqAHYm0vjTrQzFzMKysayYBqtwgOE3f1iGL/mw1M66CAvu+bqVwhFq7Kdfl3jto1JZcJgMv/ZyqS55DRxlRs5sWN+Mzy/XX9ihv8BuLcSBRziotDhWL6NVCN5VkHD64zf0/DVxAGZhh8VDaKP6hg37zOTCRs/ogi3ynZM3ZYr5ZOCzF7BYlyqmlxJwfaQH5mc1QXsgSGs+jJptMLhhW8NCe+T9n5QZH/60zPjIZ2Tk3R+XKnfO9+7C4v0mqd9xDa4UN2G9dbzeklxZeJg3kC+vmSVSwZWz/cQ/1zLTA+GA1OJYExmtSp2QPP5w4b6bpX77NZJuexpMLpSZphJZwzEkf7wsVZUfkDNZs2f6OZuO9Ime9tA0r5PJUYjTnt/EbIGfGjUfRv2hNAgti6fVNn+ujwW7/gx/ZKZUjj0VFwUfkJF3fQzOdZ5+z9l44Ba934pKNSzIqyecka2bzKbWiaHZJqOOUas+isj0RulUOGmw8tynWvOANO6EU21em7WOBjgoQmicoQsUlmbQxgRUFR+hrMYDhskyMLbZy+wwIRDQILDREYFcqKc2cTTLgwz275HGsp/K6Hf+TMb+9cvSeOwetHRVaqdfKMNv+pCOUhyt4ofulHjrRp1mKyedJTJzlhpr2lLTLgTBevBpN/rEm3Ew3szTr5mpHfrrWKg9f7LOK8D0yUfdHhUQ1sEt2ptgUpYMwuhMRy8P88i1STE5TPOwTipCV3tMxAjjyHJBLTPTuCnJUQiHjkZ2kJ8dUEgaWJA/JfW7rpPR674hYz/8kjSW/wwJGJ1wVVg97TW6HaEXBFh3RSOzsI471n3XWSxCENfiMT8y+fgk/jyfIRtEG6VZ+fFmnvHSe3W8FseaiMFc4aCX7uFv9+6Q5JGfi4ztUVs0RzGGzrLjWZxpZkVDJ6R8MqLU7QspvF6YbUBqWhgy0dKNl9OtDenXLtGhx0g0e57rqBJEvAI7+FCMNCdK5agTWg5+3VI54njIuKfJuDaEA2CRzavCxsplUl96rcSbnpRo3iFSPflskYPmui/Zn90IUYxCM2dLhes86FLbqhDWiedYsuNZiR9frhus8RMP4YLgSd3I5UzhaktB0548JrIkKkP/9rFwJiUr75axH/ytJI/drXE2sNuspICrNOusZTa+D7UtEJKV8UgbgnRPlsLaVOUK8lnepOct1JGjduIZEh1ypFSOOwXOASfhY4iKgIPEGIGTrU95Bsc6v5D3nxyt0t0vSLxxtcSPLJNk85Nog+ZPuHhlOfLBT8nQRe+DUyyTvV/975Ju3SDDV3xcRi7/bUk2rJb93/qC7sxTx1tV9azMrACcL5p/qH5tJLNAzzlYogVw+kU4OY44Tqpwcpm/yF2I0EiPDjJZ9MexsLjVnfXr/sH91Gr382wFn2jQrs13rv8o1j0nUzBDPlkFFYXqMdQPZSlDoz7O2Yp7U7WL3qtbAZXDFsOZMFJxp7zNiKXgtK6O4u1paCXxIU4mPpyNP+IYu/E7Os0xVSVnzpWRKz4mQ+/8LaxBH5L93/gT3b8avuj9Mvze/4Q11zMy+u0/R9py1QiKn8G1i3M6PWH1ggOjKb+U5oPfFh6l3x7wQiA69Rz9+T4fQqJWOjiYDgAd0kN0K1u6QUq44byJYjwHNHiy9hFp3Po9kc04qyFr4k01R1iUIYsXymV0cPCjpR5ergxZUpkeUcUimntMl/2G1F7xav1qRTcbeeXXCVzLUI5bE1lYVToLObViiqssPEKnuXj9Sox2DXe1yStF3k82ulfi1ffrd6YRN1CRTplkPUa61RituJ3ga9Ghmg44S/TLez5ZEBcMvN0o3fi4JOsew4i5DleQyHvmTFyZznJlnkL0PmLBGzhCNW74ptSv/7rIrh3aSXQS69gcjaPFT1pkGaFkE+TriYdQSdDKI8hHULRDWFyBSITL/6ELr5DhD3zSLZgHgTiWsduvltHv/pXbrYdjadmGZupaTh/otmcnRlaMcJiyIt6kiLLxB6s2KuYAXVYnq1v24UC+pvsIx7QUJ0x06NFSPQUXC+dcqtscnDozI5NEtyNW6WnacXQqQG9mQ+NxQclHKlqPNvMuFALJFLEjD5NtScjsZSmeIF+draCifOoUTXFk4mYn94wGBRSmgsU4ndjKxbJE9X3O0XbDgTgnEzEW+LwFm/fo06l8XXLF9nUJ62j10zoSluaVI9rdtE4ay66T+rVflfjuf3Nf/Gt609CEZiag2ymz1LG6VWYBefYlTz2me1baMKhVWDajGRht5vPZMMKzwcmF8hZ3H17P66oMaPJCe2RbGqE2cHA6SjAypGP7XMIggGkv2YupiT/+8AXIyhIsAI3KysaQfCRomucTmk4m4AOFyiBkn5ksGU4Wzrv3BUkef0DGrvu6xD/7IS5AngbbOzVQ7Ouyvp/IQGMYZ2GRR1kGKeZ2Xvbqjx6Q7iqppEvXVSZCpd1hcco0TTqCnyrnQ+WqsIuHMHuZCcBsUtSJeyUNkMD1zNNYh+DQh9UOAMkL27BmWqm3zFibWdkZt/JqEsvqD+V7uXylnL7VLUsiAb5zXndSaqwoy28BNqyU+k3flvi270vCp0BPAN0ONKF/TMixWsDhnL803oKFIhzMapKZb+ajCPLVJCtvWG6SOTVELFl1GBbt4EOz9vysYTXmPtUGSV5ooLy8ZaXx6DI9IRLeX88vdi2jFiCB66J9GIUgy4P1TRF3PM/H6JA+u0nq994k9UeWui+Nff4KkFpXz1Iahw5idvg05QFal4A2aP2yuFNybUAaCabDD5VNdM+Mz7KIl92gX2aPe8EyQYQOOPnFOyvAr2/uv0XqV/+N3hKiV04+yfIIaYOrOpmkSmQQtxmjRdepKLI8SDsyh2I5KGRyetPc0adI9dhXSLToKKlhkcub6LjBWQTvWY8fvlNiXG3ZjyKIoCiaD7/DS+BY8ZOP4GRbWzoiUs7KVQxDqG2fgcowdFGNaDzQKdoos0mkvKHx6FfI0Nt/U6oXXCaVGQdBrkQwAJ2121HL0JNj8YEVjRu+JfWffFminc9h5PBXP95iO9qBEZP3VzIuIYecDftA3GSzdM8nyCPC/FryZ4QnwtCIVOYvkuG3/boMXfJhvTGvCF717v/eX+Js/wlOcugEeREkWfoEo2E0ipGNT7YB00RydfBly6XjMLpoO6xLkQ7rY2oqUkhzcEo8YdNqTSo4kXj/fGXJ+VKpDkG+RaEn9DAWovT8GoFT4V5MA1ojN78brAEMpJtx51QO7Z0qhK5FGOLIkkyReTGkjOcV1BWZTRIU5BsmePvw6F40uhkrgFM+pzveA+8PXmFltA/52KGUV34wY5YsPws1i0K60YSK4SMrpwejoV0lyPRyxtc2QqSor4Kmj35L1z4k8V3XiWzbpANCv9GDY7GxsdbA2Rxxk4+VsVqG8J2ljeJIhTao55HWQxMcbQjTXR4ennAO7UE5T2peQZrlbWGYh6HtWVtgUzUvyoidKC40+5TrnKcnPDSuOsFVHuOeJEG+1pu04ypMXkNV8Cu8UAjQdRhOlOTRX0hj5T04ufY2ldsgXJh3g1LH6soICp7seUFinu2sAFRYWYamzTC3eAWyhvShZaV8p6CNanDp/kpHOY5nMhzaczaAfLypSD5Jp+94ZCipCSRKkOPnR2XLiyCfUU32MppnxnQgmfFLaBdyXeNsmrxB8+ER6ns+hU2HXA3xYeqUdaMapu7nNknywO2Sbt3oU9uj7UnXBqWO1ZURyERYY0W6H8TGZmmV7SvlEFYoaxwnmoE0k5o8J6i28GFbFqqXCbmRgU5tMPtNGfLy4yiTwnRC0wu8FmTpZk8tKRVCOZ5NOVcHx7J8y8pJAeO7ejXpkK+hCzIhs5/xO0D7VoUhjSvh5InlEvOmgcID3iaDcEDKOVaY0HnU8sM+CqY/bUJJy8S13p6vjaiMIPQw1fIcA67Xsw5xoTuzmb/xCcbDMildSFcYTw14ugjyQ3sa8iPHyOWnDu/jGuCDtzZrCoKwrBr3NKH1KaRTwHR81BkmobYzUmFlsbjJ8LTIlXP7ZklW3KW/eQykJ4VwQKqEDhQmjDdqaTq/8eeXoM2NXFf44MjMMBvyXAzwCUF6uyybOg5BkTNQN5cfQFrjnqcDn9dtyQvxjicTFEyHoZkKzVi6M+McnlAnU9q0mqCsHZQ3HRPTvEhThoHnZ/KMqJ4p+jSGODQ0WR7k8YN8fqD/eJ8Y39ahO/KWQY+oFB2o80gVgIV1VfW0g1XAaAMlNc0i7iOraE7WJamE6jH0EY17WdIK8rOIg5lTeR764Y+CbHdoowR7TLFUzY95kPZMa9OwjgbyrGxmI4NnqAxDF1WEebi2adHO5Iv5mmTG5qjFbyLqmA77hB6uCoGau1WEsMJaRYuVCeOZrIVGAAFZ2pA5AaN9Wi6PUBlol4dCZTkiFZRCFH9ogWiLdIFn9jqZzdpLI8ry7ZedtgoLWzN19lWWeo6lhNkmLCQok8UZ7t+tt5TzyT9l9ieDFsfqbgTToknEd+7xfiYvw0+mmAnG9fAmLNSGAM0pwrM07nh5aE6BXqF4GcymQfV8aGjaKRhBPB3zD3QrAXer9Y5MfyOgltPnpzRlmABmWIaw7UhZLJShHbXlaeORo2nKaaZR0PLlkfEDkGdplm5hmHdmg1Mg77rgnqQl9IhxR6z2ZzEca8Ysd4sszOg6grAKeNK0raJZmTUBjefj2gjkeDmDxgPaDkLtOVKRK2qgR6h9z9AONzuUS7FW5A12bX79ojfyzZknMmOGbqJqvqrXtElwYWxpIVQWIQ/Tc2gqNynaaUVoU215BeObPuNkaXqgQ9LytlB12AF65ys3ereT4RN6w+SnQpaU91zz2QRa0kJ5mF4CaxCTpZjxihXKTJhOGGpi5s4Ka2QFEiwe8klm+QGahJGKXyC3cyy+jjfiL6VnL0DEj0qhDcSV58PQPpGL59IKhjyKnLD8aisQYNzKQ1oPlgOsQC07gQnVUUL/leCTgNzdq45TPlN1jx7WWFAd4Qu2D5Z0yH6A4AplsLJpZUkgbsVlGHZCWA/Smgba0g2ZfPAZwnQNakd1mtOUBt6OTsZ1XNnufE4SPiCtBLwpsLb4NIkOPwEdxNe+ZeoZGNfDJzCPjPb5EmRlcYaIMK6H4+ZAvubnbdGCyYewqPIp7xkMVD6z4Qxl5gCMsyKjeyTdz/vHlAHZUKIcnZyvB8dCxnz+J9/YzltrtUjNPZJ8Y7iKUcRYGsWHVtzoQNegjWK0DwmTD+umejjKbfnLf/CNlaXx5j9cGaXb+FOsYO/EAGPVI0+UobMulmjBIsg4Rctf8yODoeXrAoXlE5ZJdb2epZuOyYUwHjuT8pQ1OxYnjEdGKOfA06jZRwZ1Ir5nKO5061ArOjlfW8fqZijkr1v0N3nz0Ni+RJpXQVVN4WDojqBAPq0MlDV7mQ1NcWBaWDeV97RB9QoIeY5EZ/EFSRtwyc0d6DLMnC21sy/WJ/XpicR1CX8gUcwQCLPM5e9ljRdO5LRTVtZihUyOowzFXf55oba2VMt0HJyYP+nyZjpiPP9o61jjDoVMx1WSOhafxIIpIssKSWG+LaZyE34h3euSF/KzuFct1st0DCZvLJPP7BjIpy6fNrhuhSSYEksBA5XDF8swH9f4une5N9FX0XzcHYbBNHaGnbMxA5cJySxvFyhIZ4t9x8pQpmM8HqTd81CRoHL5UcjokOfsuE+1o5TjkI5s6yjQ6YTx/KPtz7+6gpYQV4Rbn3aP0MYapd2DNcgNi2KV04p5FYZhXGFCJAM5C3OihXQHtehIIEwj6UyD4lZDIxY+s6p61Al60rSAJ9L8hVI9+mQsAfirZ6wxZ8x0P5rgI8FnzZbKQbiY4ZUyf++HKdZuxdGyhnmTLsaD0JDxcRTbRmnfNgby1Ak1oiwnh4OjTJZuaTjULn/A+6rXS+XYU7ycF5gkevz5F8443kX64G1S/+7/hnOtxsDlBsGw8EXntsoZbTAdDY0HIqPLdPxHOz2mcwLIfujJRI8wrg4AJ6ldcLmMvO8T7ifzbQFZ3uu/fas+WI6X6pHehpzAJqximkz27pRkwxMSr7pXn7jDaU87yypJK2FhAE0mEfCtjGH9wjhBnvvwPBMi6eXC0GD6VKgcd5oMfej3pPrqNyHKkThLhA5H1mbcYM5XmtZoNMBvTShDuwz448j6VX8t8d03IsJH7DSHZoqT1tCxsnbTuE9TMqBDqC3wmWS0okQ3zMsl+Q4l5dNDOgvBY1K06Fi9bXf4je/XH592BrT4yhWut1L3pEIFZ0duYezYKvV7bpCxm/5Z0i328/xmGajOfEOE5SOsjCHd5LnFuKPKZZXOPsrS8YFlTPX016pj8S0YyusRE1q8lzog5CrzD5PqkgswTSzIhv4QOZY3y8DYlhXlSGvc8xTgcwQyWoF4Tt4jy8vz2PDkmazSLklhuhogkY/N5rNSGyuW+SfndQK0+Atj/jh0eKa+fkWPkRk6HfJxRUOvu1ynmGgYfCucL4+VIyuDD8MCmoqmgbY6OHAsDsR9el6mmZ7jeVkFf1DLq3s+E8J4PWLyi3cD5TCFVE58ld6k79YmbXRZYU8yzCrmYQ2iWasgRxt84jBRSxqveJZuYmbb7GhZTCaTBRPronj9Cmnc/gOJ1/CtW739RCzCSVdD2/BHssVCZ3UqlIMI20bpEpkW+DoVZcK664GPzD75w7P0ByX62pgOKBts2qGtY00IyJA/V6+c8XoRer3WrrWCWeWC8qko+Z6XL7sbbTLvUOQiWR4WZtCMXEBkcjh8kgMYGa1ADOulxiNLpX79P+pLn3hf/GThnueADtO3SSDuM2egZcln7soJXlgf0oyafE6HcU9SLkwzOrRltu1QFp9WcwwuSEp+oRSi68EG6MmxMg9mhrPmSPWM10nl1HN1OnBF4Ge+MFo2zyJdrHzIUwTp5NuawkCe6Wq6JVMeB5Ny9jyyfKjv4yH4A4v6Az+T0R9/Rep8BfDOrWCWbJ6OA77gPOHzLDjy+XIwL8suzDcsO2H1KZbf6ej4qrKMZnUJdLPQ09lyIgQfZnL4Yj/bwPmLDTFJ9ORYOQ9GDaLDj5cqNxAPP87VVmtUVhtfYSIwUWxkPQrpQVTTMx1Ph+mO5hWhEhnCuNGalyOb2Ldbn/lF5xq79hu4wrvffafY5i6IMvDBvvyJO38xzkyy/PyRg0+z4ml9/GEg7fTc+ipnpCBnoYkUQ5WfPV8qfOrOgubDdfuB/jwfy4Ba8OEW9Ru/I/HN/+S+LWePAU0n4EdWNQVjyvVsa4x2BQvliKKeoZO+yvow5JWCT8+ZswDTxSlSPeksqZ10hp5EfPAHH4uk60r/Y13dVuDQwK+JUP/6vTdK49arJeHjyF0t2+bVUo9QjgxPh+UPYbKaToIfoFXVpxGmxicaVpZcKMMfxNXgiWe2CvaA/jqWAldWT62S+jVfkvj+m/WuRJ2+fG3CyhPWQFl9KAo6KxTlskgeoQ0HEp4J5Ox6FPM1mgjlW3UR4QYp7+aYv0ivhPWrHT65ZgQL86GhZjH5fSN/r/jsRomfXqXbDvYdpNm1vAnV8zxLy+ftYDrtyshki6qoTy+1R8YhR8rQ5R+ToYvf7x9xNPGpvh3671isRX0Ui14sfn/yNUlW3as/utA7MIOc2jeSWzv4FUROzpPNxst0WuFstMp01PFKuhYplVGLLqST6VMAMVJlI5YZQMCXe/JW38K0mc/f7Pm8gSzNmyrC9Fvku4CqUJ9OPjwDy5a3yPB7flei407R9H6ipzVWKVjToRF94FeNj2I87jRthYh3BKBSYYNYo4SNxQsC/am+S8rJaWAJgPFLobbyMowXQVaOTz0Gnsewme4IljHipihfMcw3w+7b5X5Nved5F+7lL6v9izxzaBbG2TR7GgRtwIjReR3GTN5kCA2MH/IYglBdMpgJToLKUSdL7YJ3SOWIxS6xz5i0Y3Xc02DhZx4ktVe+QZ0rWrwElUJWJZ6gFWYDgbbUjAYRZhPKWlrbYkCumB3jqh/oUMR4lq7wYXaBwrwc5eQQujjXTP7wtEsxacCT1maWF0Oj1Z7RPs3VgVYDHbK9DJGF+GOawvMMjKouDtLRIUdJ7bVXSPX08yUdCTZu+4hJORYbqKs9jTnzpHruZVJ7+2+5bYjqsA7D2mgFaIUZmlmNOJK06WRsfuDQBvNpIZisfK9rB2F5+Kgily+g+ko199IyEbNlsj5BxTxteSks3ScyZDKjmbyPm11N0xQXmpzKODIjXFByxWmCZghENO9QqV14udRe83b0z4Km4T5jAIv3IlBhTBXxY8skvuUqSR67C1MFpgnf8gy0sXwjaD1Bhwv4UCZsB6oEUYXayRSb8i26Xo4spT2K8ppEmiHjXlbTCnSoa7b5qWOOTw/liBY9ItNVNaVzesYswMmodN4uhJULp6pe+A6pXfoRqRx5kkscEKbAsTzG9uv9Tvrgr/tv0TfNa82z1nRk1ngelpwTNZmCvKYzHugQnfhKI9SljMVJFmQVJXKTBm0hoB3NijYZertWtqyM48BsEKGefndL/qJjMFJdIbXXv1tfeGDbI4PC1DkWaxo39BmYyYO3Sczd7HWPuifWoDWDFUILsk7OPvLI0tmGoMvkVIRpnm8N3w6hTSKTJz/gEZovQxfNoMmWkMk2I2bTRIow+0RWjuzD80Dr6M7QeAo/3WL5wTe6Vt/wPkx/l0m08EgIegMDREfH6notNQGwSgkfqcjRa/lt+nqUZNNa9ygd3m/CZV+h4tYBeZDRlCuTYapKFdIy894E00wmTFKQ4dMZhlsRGU8jjlYy5Bdg+WQ0CX6AVjXQJtMi63lEyM/lxQTuR/HhavMPlegV50j1vLdK9ZUXurfqTxGmbsQKwdbgw7/4/E84GL/oTVbdJwlfQac/w3L3dPFwF5O+NYEm5WCF9+3bApX3iUx3pFv3aByMrJNwGM+QLbT1s4lQj2jpYEUznxBlebpPXY0pM0wnzKGtbGHejGgymbzF+KAFEh13qlTPfrNUl5wvEd++MTLTyU4RWhxrEKNUKbSB8BHDwV7YIcmWDZLwpUNrlku6ZR1420R27XSPzbY9MGho0Ugj1FKqHYAioJmuoWcToZ5LcJGwgxWI6xrK74xQnLLqHpTlgOqYDs5MxsryIMJIoEMyJ+ehC+xsPlNGDlnUp5sIw/AbgeiIxVLhKEWHOvJEd5t0OMxOEboasfrhbO1toNKsNzcc/eMYZdtGfc0tH4CfPL9FZDemTq7F+AJI3iXAnWMuPnmTHQ8Oa12B+TOz8dCU0w73VDswJaxZMd7KaEUnEZZB26fBJ/vwPnowh1Dv4RkYnea5N5gddox+lxnxfnxOgfyKhm3UY78ZrP/CfuzkFwOfCifmlL55+Xgkfg3EpxDv2+u+zOaLn7gOI5+3A/NrFD43gm+Y4B2Q/mw3N1CQpElDWAyUi1dMussPfqZnPax6NBgoGU/h+blRxvFgsWnPoOmmawhksnQlyAEJmjyGvNWZJxaWELSv303OnKPvseYX5NyQ1hcy8cfDbTajpxIHZo0FdHQ464CsUTFCMVR5H6oMDh+4D6ZrxMPixZAIeaToDIaytVEol0/J2w5DIsyvnb7xCdM3eFkGVn8FZOhA/A42HLFV5sCjb441sZFpMmADerIMzJrpFnZCQcbUcjAGEkvTQ5i9YkiE9Hgoyo5nhzz3Me1wQBxr8E7YRDGvsrynsjyDxnSpS7er3nHRrjKsaBFTWfFiXmV5T4eOMJS1V7fo1qko10s+3aBvjtUO06nTXgzopb261aXcoPsl93DbX6I7tGuzibblS7ntcw+3ne4VLStft2XuZ93ane0THQWK8gey/XvJO9Q1emDbDcygH8Ntv+z8ElOLrtdYE/XofjnDdDqrpysG3SaTsd+1Y3XrKCxEp4L02giTcdhe8pyMbr/y69bORNukaHe8fCbV5gdq5/3lAnbaZDqmDP20NWgMfLuhnxjvzBovfTLoxebL1amISTnWIDqwG4zXsINo+F5sTkR3vDZ9MTkVMSnHGq+Sk3W8iegN2rnL7Bd5/SzDZBxn0G3QCZZ3uzYZyFTYrpHKGiLkTaRxTbbMZj9QVpaQx3zHK++gymaYSHv1G5Z3sQwW78mxJtpwYSFMt9fGmah+vzq7m3wnU7di+drF+1WPQaEnx+rFKXp1qG5R7ICpyneyCMvHshfLa/Fe6xG2yyCcdCBTYbeYirOu2w4YVFl6scuyD6pcYbv06qRl6MqxpsIBQjC/qc5zEI1LlNmdSN1C/V7bpEx/UO3clWNNZaMT5HfKsx+NMVkbveRtula3idoqtsl4+sX0sjbt1M694Jc777/EQHBA11jdopsz22QmOgq82DCd6tepLC8Kx+pmuDaZQQ3tU412nTZe/frheN3asLKUyU/KsbrJuB8VHCT6Vb5OdnrJY7InSD9OrInaKJPv6FjtGqabjPtRwRcDOtVzurXBVJxMho6O9VJ2jm7r1q/OmEr0MiB0g27s9GWN1UvjT/eOKzbii8HRpsOA0BfH6qUiE9XttWOp34uNsvKG9iZjeyI6vZS9HcYr/6TqNJl9LGY0Hc6KFzfQWXwaDPvMnk3RB3TVN5ovMu5jvkXkHKttoVgIPniCYUdAN+ZDpMYvbLfOOSknZjn5NBqCT6bp9vkGWk/ojVdNrec479Phq1DC9mIn8vBI44Y+E562KrPm6rPx+9HJ47ZXmki6d5d7as/M2e49iwNAVyNWhEIkfG0HC6ONFba8V2cwMkv4zuSsUw8AtGHH9us7fTS+4NCWTmvb+Kq3DU7TfFNXhlCc74Cevwj1rCFSsOOf/JLu3Crp1k36dgq+GiVaeJQ+y8q9VCCSZMs6aXzvryTZt1uGP/gpqZx01vjO2itY7327pP6jL0u6+j6pXf7bUj3nUl+m/mJ8x8KwmW56Qsa+9QWEa/VRhGy8iA88Q6PyzOMT9yKcCZVTz5OhD39ahI0+gMJ2BZQt2bBSGt/9C3Wm2q99VipHndTSaUXnilDPeO0Kafzz/9KXp/MN9XzpgdYTcnzgmTonRp3KyWfL0L/7r865wnrSqUb3SnzPjVK/7V8k3bhGn2elr9w78QypXvwBffUeHxaXrH1ERv/mP4vs3inDn/obqZ55MWSRx4Cg9eXZsnu7jH75s5Lcf7MMffR/6qO5pdE6y4w78o0Dd3oBNFQG5VaH3FPieNbh4APP4qcek+SZp0QOcmcjX/gjcw6W1KaAor2M5/llMgA7OCenAE1+ltYBSObb9BvrV0m8YbVI3UbZAHAAfVMGDw+2YTQ8JMIRjnU5BHXCScR6xlvXSzQb9QSPTx2O5h3syhICeaRjY9K4/Yc4Cf9UUjhO5YQlUnv1G1U3vut6qX/7zyRecTdkKY+DNvhydpYv14eId6wveOS31Ks9nw+Yy8qstO8nzbfVgXpxKiIbsco8NOPxbOf79rhGQGfEK5bK2Jf/SN9xN/zxL0h01ImQaUjEp+vxIaossFbe2VHYm6W0Mj4frWgQZ5qNAGaDjop0OkvENNqvwQFYpkJ5FSzf48tl9Iu/p9mP/MHfoYNPd6OB5ccnA9Lh+LoP2rP1D0df1FPfnoGGjx+5Q0a/+j8kWnSMzPjYn4ocehzk6vrWVJlxkOaVAfIJ8h37u/8iyfZnML39gdQueq8+zjHZ9ow0rvm/0rjtaqm98QMy/NHPS7J5vYz+n0+KYJ01/Mm/wkiGEYv56zIC9dq/V18bHPGVvzVM5SyftaHWm4e7ws1awfjWdgTtod3S/btd/4yNythXPisNjFjDv/UnUrvkV0pHrF5RvfLKK//Y0+3BDmEHzOAxS9IdmyW++3qpzJ6Lxnufvk9YX60GJ2jcd5M0rvu6pI1RTEFwODoGGinG1FC/9WqJZs0W2bUd8/zfS/IkzuojjnfPywQ4hdV/9P/07RXRYcfqszXTpx+Xxk3fkca/fVviX1wryZqH3etwDzkc5Spb46BBWb57btAoX++h6ywgfX67xHdeI/Wffl3i23+g+bBsOgpxEct6ItTOnIl6bvf1xEhcewPqufBw9/RhPpIxhD8hYtb9zh9JdclrZOi9v+teLokyRnycI0am+LG7IVqR6qvfhM4cQ32ukwjruupr3iaVwxerYyQYHRs3f1ca138D6T+RZNVy2K9Ihe9s5rSMfJKH75T6T74qshfOcgymebYDTpT60h9J48Z/gtwQ2hUnAfT4nkS2HfskWX6bLtyTTWskffZpLUfl+FciX++wfURwyo0DZq5nNjqSB1l2VhCajjPjiQe1YdI1aBCeQagcnSxGY8S3XiWCdRrOM4lRyfiGb7iXCLBD2TEP/RwN+k2J0ZgRGit5erWMff3zUv/BlyRZv1KfBx/f/M8y9g+fk/jB212HemRTecZj3s09qxRrmca1X5Gxb39Bkgd/hhFjrTSW3SBj//h5NPo3szegsh76NgetJ2hvSuvCUHkk8uAb73VtxvRjT8F0iYsY1MnaLcLifJhrmvf8jk6N7knQGIk1T5C0ASeof+fPpXHVX6MN7kX9n8AohxMS9W0svdbZgyTfB9m45XsSr74boxp4tMGnTz96t8Tgp+tXoE1Ryue3SONf/lbqV38RTn2PxOiT+k+/JslqtK+OtlYPrWVf0b1jhbByoLHD6RMxX1R86iOgPZ198syAO+LsrB5/hr6BNF0Lx+IWxb49mEoeVJnqK1+jo0zy6F1oxJVSO/+tMuP3vigzPv33Un3DuyTZiFHs7htwhfOCc0paDcoRQvn4T+CIdPho3iJMAZ+XGX/4NRn+1f+GIW1Yz/IEDW9TWztbhtZ0dmxDpxuWJ5q9wI0umRzqPOcQqfFB/mdhzTXCR2QzzbcRHINPRKbzxPfeiCvEM2XkE38pI5/5sgy/6+OS7HwWJxxmgY1Pwi7KmJktOIQ/iZQPx40fxol6F0bFgw/V6XfkM1+RoXd81C0B1EkBVelc3/GQndQBen4+Vl6bMZ7P7WyyUVCJg+ZK5fQLdBsgwZWYvuMP01eKEYovEqqc5tL4VvwZv/9FGfrIZyRafJpER5+kzzDXl5k/txnT2H5nM4egwwh22uh+iemke3dKDdNO9YLL9AH7tdddIdVzL9EzW6dFPpU4aw/Wol09CoCYSnJEJ6HOXtTFScd0HgFUKqrqY8iTR5bq0qFy0XvggBfr2rD6xvfrO5s5enPEcfL85FHmEOAzf67RVj8g0b5dWL9dCKd+i1TQhpUL366hz3nC6NZfcs/H6gqwq1UytSAjUnwiNVk2dpGrfEc6RTbeKedIhPVVjKkweXqVvqGC8z7n/Mqxr1AjlYVHaPfGt1+DS+Q/krEvfVoat35fh31ub7gp2fIxaCZNNgszukunmQqfi863iQ5jMcwpZMZsqRxzqnZEgrzpgM36wCE5VXlaK9YOmh3TIYdAy+Y1M9Aut2owkjUHc2ipGsLdz+NkeQaj3cFSPepkLRNftqmvCT4GZcYVZ7p1A0a2utOlDXsUuNnzYIvzYid+bpOkGJF5QnLtyPaqIP8IJ22zf4iCgQ4o8xfjhU5XPN3HB2xoW1iFihl5282zPegc1eUHKojFefXkcyTFMJ8+jNFk5b3aaNUl57p3vmAx2lj6Y1xlfUbqN3xTBCMUbTbtgjKyDFk5AHSQ7rfxCqmKK6MAvFKKuNuue0j50cQXHEKFOrYA7s9FOhb8XFOluzFFMz8rIMJ09w6J778V68g70elczzm+hjTP9SmnJ06hLJM2E1oLMnQECuk6jvapyqOCfMuKpjZRF25o83HdnHoZqibstDhHmZGJI7Q7cccymI1i73JY50jCSrGGTOdVi8p5JQa4XNfXcmAUaSxHg6+4Syq4iopOPltHNL3yxEiV7tgiQ+/8qAx/4i9k6ON/JtVLPuRGHN/AmkcZgqz0DQ5cMHOLYec2MFgmOBMaInl+K5xgDOnztENNz6DWySvwWzAMXe7nQS7BlSwvFvSKmNMStyIw5de/dqU0cDWsadrRgHYGaG5fzJyDKz2MrrtQRnoM9VHmBG3B9V+Fb6DgiVFD++Ak4Imo2mxbyOoeoJoEF3lGw3B0jnC7drjyM12/sgq6nfx2bdgB402JLY7V1RyKwmh5FJ5CwL2faAGGbpx1+sqSbRvd1yRo6GTzUzSOKsA+VUBXTnyVRBj2kyf4/pynpHLyWfquYjXH9y3zbRR0Cm5JzF2ABsc6ZNX9WD/sg76KtYelo5EjdJp+ZZLiyhOjBsvDt+snax+W+IFbJIWjMu9IX2OLMz1rA64Xu4B2ZE2qWHTzXTbJSlyd/fxfUV44EEbCBHVjPNmyXrdJolm8KvS62h6Y8nAVyfbg+6Tje26W5LktaLt9uID5BdZ/d+uUGB1/OkZYjIy84qxhfbpxLdptvaRjo6DXSIyLGldv1HkmpvmjsaTAaJ08ukzSTVj4852R61dL+sw6ivSE1lEvj+72sULwMnbzOt1jYeFrF7wTFcXUxUUpRwFULFmFy+C1j0hMh8KCNF52HdY4zsmqZ74BDYhORstyv4iVZEfwdR21N39Y94Cs0vrSpseXS7INjbfmYVx6/1CSJx/WTcVoDtYi579NKhxp6AwGbm9grcI9L3Y4F+jRwehMXDBwJElwpcQtDjpo49arQT8itbPfLLW3/pr7Ls8ajHaeWat2yNd6zoFDhHmFgBqv/CKMJrzCZJ2S9Vg7rliGq9Gr4MC34iQ6SYbf8wl0+AmSbt8C2z/WzdrqBagHnICOze/wuN+Vrn8MbfcLLSP302pYxA+97t3qUNwOSbAwT59E+8CZ6HgNlJNOpvYwE1Rf+Vq06bDEjz+AdnxYX+PHcjXQb+kzcDL0F69QKyeeAdrVmYNKVwNLF5i4Y9FzMH2kax7Us4+vLtNphh3CMmHxGc2eq86XPL1G3+xePQPOtHiJOkQFFa4sxoKZ4BSJdL6zkGfkEDt30dHaeVxXRPPhsDu2OTtbMaLxzetwFE4lHIWqr3qdO3tzjoVCYOjnW8Rk1lypnXup26Dky4y4CbkHUw07fONqNGgsQ+e8RWpX/Ee3mVuww2mY9awsOlIqr36TvmErc7wyYDTh95JsFzoDHTjdsAqdvU+quAoeevfvuBOHTssr4ccx+o7MlOo5l+gGKK+Io0OOlGgnRuZ1K90oA2cbuviDMnTZb7i6cjTi12hwco6E6UbMDFin0m71lHO17tVTzscIDYeZi9kDOloWymFKrZ56Lo7z9AWk7IuIL3bqVKcCunW8Sd2Pxa89+Bq4COsKdQSuTQzMmOsCOFa6Y6t2qL6Cnzw4JHej2dE63yPn+o3fksY3v4DL/kt1f0k4KnD0I9DR3Fbg7jE7o3rk8boOSZG3Ot+hyJsL0+K4jo7kFSYXvpVFx+h0ajJ8R2K6FWf2vr0iLNvhSOe+U7Fx2X57dyPvjXrmu3oOuTSADVw6HbD+3NPCqJlwKYB6R7OQz2HIhy9TcnOVWyKgXtyC0F11vv5Nh3ss4uEI6RaUH+tUnSIPOw4nCdKtXSiHdSH7QK8kocu3qNIWdamjTqhlwTqMb7XdtknXs3xtL0vAk0bYF6x70H5WL3Og8aa8dpicYzFTLgJZIK1swQTTOS2SxKH7NyS4aCSNtU665wVJNqyW+lV/jWnzYRn6zc9huMfCPGs8gna44KQywBGFWXHhy5DOhYq3VEDz98tHzS+QAD/idI5LdVrlVVY+zwBWD+rbhmI30PYJyk0U8wllaNvK2KLLvHFQPwTTtY6U8zKEnrBBXkV7TKMo5bRtCnb7hMk5VgHFs7ft2UwgLcKilPcENW75LkaxZ/VV/UO//keYBo5oNsgE0THPEkxUvh36ZWfQmOpy0uV7RrHAnSvACiLg9II1T+2y/yC1931SF9iTdSpioo3Wr0aeys4qAx2mG0x1OfsyYk0YrOT+3e5WGC6IeccAeL2eVdNt9HixjGaTRaf6HRjHInim8WDBgsK91Dtjsii2y3Rvp75MhWVgxTuCjaKLx3zj9Luxxi3HiwTFdhmkU/XaZtQfmGONV/Fi4QflAGE52uUxiLwHVZ+pQK9Om6ap/H9PXv5ld3s06QAAAABJRU5ErkJggg==;" vertex="1" parent="1">
          <mxGeometry x="378" y="130" width="100" height="92" as="geometry" />
        </mxCell>
        <mxCell id="HnhsPbhekzyfCZBb2tJA-3" value="&lt;span style=&quot;background-color: rgb(255, 128, 0);&quot;&gt;Plugin&lt;/span&gt;" style="text;strokeColor=none;fillColor=none;html=1;align=center;verticalAlign=middle;whiteSpace=wrap;rounded=0;fontSize=16;" vertex="1" parent="1">
          <mxGeometry x="100" y="402" width="60" height="30" as="geometry" />
        </mxCell>
        <mxCell id="HnhsPbhekzyfCZBb2tJA-4" value="&lt;font style=&quot;font-size: 12px;&quot;&gt;dp控制 （tcp）&lt;/font&gt;" style="text;strokeColor=none;fillColor=none;html=1;align=center;verticalAlign=middle;whiteSpace=wrap;rounded=0;fontSize=16;" vertex="1" parent="1">
          <mxGeometry x="389" y="380" width="91" height="30" as="geometry" />
        </mxCell>
        <mxCell id="HnhsPbhekzyfCZBb2tJA-5" value="" style="group" vertex="1" connectable="0" parent="1">
          <mxGeometry x="170" y="330" width="132" height="102" as="geometry" />
        </mxCell>
        <mxCell id="HnhsPbhekzyfCZBb2tJA-6" value="" style="rounded=0;whiteSpace=wrap;html=1;labelBackgroundColor=#9999FF;fontSize=16;fillColor=#CC99FF;movable=1;resizable=1;rotatable=1;deletable=1;editable=1;connectable=1;" vertex="1" parent="HnhsPbhekzyfCZBb2tJA-5">
          <mxGeometry x="2" width="117" height="50" as="geometry" />
        </mxCell>
        <mxCell id="HnhsPbhekzyfCZBb2tJA-7" value="" style="rounded=0;whiteSpace=wrap;html=1;labelBackgroundColor=#FFFFFF;fontSize=16;fillColor=#CC99FF;movable=1;resizable=1;rotatable=1;deletable=1;editable=1;connectable=1;" vertex="1" parent="HnhsPbhekzyfCZBb2tJA-5">
          <mxGeometry x="3" y="52" width="116" height="50" as="geometry" />
        </mxCell>
        <mxCell id="HnhsPbhekzyfCZBb2tJA-8" value="SDK（.so文件）" style="text;strokeColor=none;fillColor=none;html=1;align=center;verticalAlign=middle;whiteSpace=wrap;rounded=0;fontSize=16;movable=1;resizable=1;rotatable=1;deletable=1;editable=1;connectable=1;" vertex="1" parent="HnhsPbhekzyfCZBb2tJA-5">
          <mxGeometry y="63" width="132" height="28" as="geometry" />
        </mxCell>
        <mxCell id="HnhsPbhekzyfCZBb2tJA-9" value="API" style="text;strokeColor=none;fillColor=none;html=1;align=center;verticalAlign=middle;whiteSpace=wrap;rounded=0;fontSize=16;movable=1;resizable=1;rotatable=1;deletable=1;editable=1;connectable=1;" vertex="1" parent="HnhsPbhekzyfCZBb2tJA-5">
          <mxGeometry x="33" y="9" width="60" height="30" as="geometry" />
        </mxCell>
        <mxCell id="HnhsPbhekzyfCZBb2tJA-10" value="" style="endArrow=classic;html=1;rounded=0;fontSize=12;startSize=8;endSize=8;curved=1;movable=1;resizable=1;rotatable=1;deletable=1;editable=1;connectable=1;" edge="1" parent="HnhsPbhekzyfCZBb2tJA-5">
          <mxGeometry width="50" height="50" relative="1" as="geometry">
            <mxPoint x="56" y="41" as="sourcePoint" />
            <mxPoint x="56" y="63" as="targetPoint" />
          </mxGeometry>
        </mxCell>
        <mxCell id="HnhsPbhekzyfCZBb2tJA-11" value="" style="endArrow=classic;html=1;rounded=0;fontSize=12;startSize=8;endSize=8;curved=1;movable=1;resizable=1;rotatable=1;deletable=1;editable=1;connectable=1;" edge="1" parent="HnhsPbhekzyfCZBb2tJA-5">
          <mxGeometry width="50" height="50" relative="1" as="geometry">
            <mxPoint x="74" y="60" as="sourcePoint" />
            <mxPoint x="74" y="36" as="targetPoint" />
          </mxGeometry>
        </mxCell>
        <mxCell id="HnhsPbhekzyfCZBb2tJA-12" value="" style="endArrow=classic;startArrow=classic;html=1;rounded=0;fontSize=12;startSize=8;endSize=8;curved=1;exitX=1;exitY=0.75;exitDx=0;exitDy=0;" edge="1" parent="1" source="HnhsPbhekzyfCZBb2tJA-8">
          <mxGeometry width="50" height="50" relative="1" as="geometry">
            <mxPoint x="410" y="530" as="sourcePoint" />
            <mxPoint x="560" y="414" as="targetPoint" />
          </mxGeometry>
        </mxCell>
        <mxCell id="HnhsPbhekzyfCZBb2tJA-13" value="" style="endArrow=classic;startArrow=classic;html=1;rounded=0;fontSize=12;startSize=8;endSize=8;curved=1;" edge="1" parent="1">
          <mxGeometry width="50" height="50" relative="1" as="geometry">
            <mxPoint x="560" y="370" as="sourcePoint" />
            <mxPoint x="470" y="250" as="targetPoint" />
          </mxGeometry>
        </mxCell>
        <mxCell id="HnhsPbhekzyfCZBb2tJA-14" value="&lt;span style=&quot;color: rgb(0, 0, 0); font-family: Helvetica; font-style: normal; font-variant-ligatures: normal; font-variant-caps: normal; font-weight: 400; letter-spacing: normal; orphans: 2; text-align: center; text-indent: 0px; text-transform: none; widows: 2; word-spacing: 0px; -webkit-text-stroke-width: 0px; background-color: rgb(251, 251, 251); text-decoration-thickness: initial; text-decoration-style: initial; text-decoration-color: initial; float: none; display: inline !important;&quot;&gt;&lt;font style=&quot;font-size: 12px;&quot;&gt;dp控制（mqtt）&lt;/font&gt;&lt;/span&gt;" style="text;whiteSpace=wrap;html=1;fontSize=16;" vertex="1" parent="1">
          <mxGeometry x="520" y="270" width="90" height="40" as="geometry" />
        </mxCell>
        <mxCell id="HnhsPbhekzyfCZBb2tJA-15" value="" style="endArrow=classic;startArrow=classic;html=1;rounded=0;fontSize=12;startSize=8;endSize=8;curved=1;" edge="1" parent="1">
          <mxGeometry width="50" height="50" relative="1" as="geometry">
            <mxPoint x="302" y="400" as="sourcePoint" />
            <mxPoint x="390" y="240" as="targetPoint" />
          </mxGeometry>
        </mxCell>
        <mxCell id="HnhsPbhekzyfCZBb2tJA-16" value="&lt;font style=&quot;font-size: 12px;&quot;&gt;获取标准指令集和localkey（http和mqtt）&lt;/font&gt;" style="text;strokeColor=none;fillColor=none;html=1;align=center;verticalAlign=middle;whiteSpace=wrap;rounded=0;fontSize=16;" vertex="1" parent="1">
          <mxGeometry x="240" y="250" width="129" height="50" as="geometry" />
        </mxCell>
        <mxCell id="HnhsPbhekzyfCZBb2tJA-17" value="&lt;font style=&quot;font-size: 12px;&quot;&gt;dp控制（mqtt）&lt;/font&gt;" style="text;strokeColor=none;fillColor=none;html=1;align=center;verticalAlign=middle;whiteSpace=wrap;rounded=0;fontSize=16;" vertex="1" parent="1">
          <mxGeometry x="351" y="280" width="109" height="50" as="geometry" />
        </mxCell>
        <mxCell id="HnhsPbhekzyfCZBb2tJA-18" style="edgeStyle=none;curved=1;rounded=0;orthogonalLoop=1;jettySize=auto;html=1;exitX=0.5;exitY=1;exitDx=0;exitDy=0;fontSize=12;startSize=8;endSize=8;" edge="1" parent="1" source="HnhsPbhekzyfCZBb2tJA-14" target="HnhsPbhekzyfCZBb2tJA-14">
          <mxGeometry relative="1" as="geometry" />
        </mxCell>
      </root>
    </mxGraphModel>
  </diagram>
</mxfile>
